<svg width="52" height="52" viewBox="0 0 52 52" fill="none" xmlns="http://www.w3.org/2000/svg">
<path d="M22.2163 13.4744C18.8492 13.4742 15.56 14.4754 12.7767 16.3475C9.99334 18.2197 7.84479 20.8762 6.61057 23.9714H23.6783V36.7033H5.50098C5.8238 40.8647 7.72495 44.7523 10.8241 47.5883C13.9233 50.4244 17.992 51.9998 22.2163 51.9995C24.4182 51.9995 26.5986 51.571 28.633 50.7384C30.6673 49.9059 32.5158 48.6856 34.0728 47.1473C35.6299 45.6089 36.8649 43.7826 37.7076 41.7727C38.5503 39.7627 38.984 37.6085 38.984 35.4329V30.0409C38.984 25.6472 37.2174 21.4334 34.0728 18.3266C30.9283 15.2198 26.6633 13.4744 22.2163 13.4744Z" fill="#7E7E95"/>
<path d="M7.0341 22.9697C6.83415 23.2934 6.6529 23.628 6.49121 23.9719H23.5208V36.7038H24.5352V22.9697H7.0341Z" fill="#65657B"/>
<path d="M23.6491 36.6991H0L9.16722 46.2316L16.0438 52H23.6491V36.6991Z" fill="#7E7E95"/>
<path d="M7.31319 39.5129L7.25575 39.5624C7.09913 39.6973 7.08284 39.9321 7.21938 40.0868L11.8758 45.3642C12.0123 45.519 12.25 45.5351 12.4066 45.4002L12.464 45.3507C12.6206 45.2158 12.6369 44.981 12.5004 44.8263L7.84398 39.5489C7.70745 39.3941 7.46981 39.378 7.31319 39.5129Z" fill="#65657B"/>
<path d="M11.8576 39.3137L11.8002 39.3632C11.6436 39.4981 11.6273 39.7329 11.7638 39.8876L16.4202 45.165C16.5567 45.3198 16.7944 45.3358 16.951 45.2009L17.0084 45.1515C17.1651 45.0166 17.1813 44.7818 17.0448 44.627L12.3884 39.3496C12.2519 39.1949 12.0142 39.1788 11.8576 39.3137Z" fill="#65657B"/>
<path d="M16.405 39.3155L16.3476 39.365C16.1909 39.4999 16.1746 39.7347 16.3112 39.8894L20.9676 45.1668C21.1041 45.3216 21.3417 45.3377 21.4984 45.2028L21.5558 45.1533C21.7124 45.0184 21.7287 44.7836 21.5922 44.6289L16.9358 39.3515C16.7993 39.1967 16.5616 39.1806 16.405 39.3155Z" fill="#65657B"/>
<path d="M23.3345 13.3244C23.3345 13.3244 22.0534 0.352543 29.192 0.00907265C36.3305 -0.334397 53.9554 9.16044 51.8219 13.8655C50.3933 17.032 46.5121 15.4887 46.5121 15.4887C46.5121 15.4887 47.0359 18.3118 43.7262 18.3118C40.4165 18.3118 40.7689 13.8373 40.7689 13.8373C40.7689 13.8373 40.2355 16.8626 38.0163 16.9379C35.3733 17.0226 34.7637 10.7413 34.7637 10.7413C33.6056 10.9082 32.4857 11.2728 31.454 11.8188C30.3575 12.3707 29.4487 13.2278 28.8396 14.2843L23.3345 13.3244Z" fill="#1BB0B5"/>
<path d="M29.8462 13.6458L22.6633 12.0282C22.2684 11.9393 21.8753 12.1835 21.7853 12.5737L21.7546 12.7067C21.6646 13.0969 21.9117 13.4852 22.3066 13.5742L29.4895 15.1917C29.8844 15.2806 30.2775 15.0365 30.3675 14.6463L30.3982 14.5132C30.4883 14.1231 30.2411 13.7347 29.8462 13.6458Z" fill="#65657B"/>
<path d="M23.6494 23.9717H6.49121V36.6989H23.6494V23.9717Z" fill="#363742"/>
</svg>
