<svg width="172" height="172" viewBox="0 0 172 172" fill="none" xmlns="http://www.w3.org/2000/svg">
<path d="M13.0124 55.957H96.2124C96.2124 55.957 95.838 92.6812 96.2124 104.912C96.4878 113.922 94.7918 118.899 86.4223 132.105C78.4994 144.224 67.5831 154.167 54.695 161.001C54.695 161.001 29.5643 145.821 22.0207 131.465C14.477 117.11 12.8362 114.941 13.0124 104.89C13.2436 92.692 13.0124 55.957 13.0124 55.957Z" fill="#15868A"/>
<path d="M54.6069 60.4883H17.043V105.171H54.6069V60.4883Z" fill="#F2BA41"/>
<path d="M54.6071 156.489V105.16H17.0432C17.0432 105.16 16.8339 120.546 29.6416 135.325C43.11 150.84 54.6071 156.489 54.6071 156.489Z" fill="#1BB0B5"/>
<path d="M92.1928 60.4883H54.6289V105.171H92.1928V60.4883Z" fill="#1BB0B5"/>
<path d="M54.6289 156.489V105.16H92.1928C92.1928 105.16 92.4351 120.546 79.6054 135.325C66.126 150.84 54.6289 156.489 54.6289 156.489Z" fill="#F2BA41"/>
<path d="M102.338 36.6133C95.9325 36.613 89.6752 38.516 84.3802 42.0747C79.0853 45.6333 74.9979 50.6828 72.6499 56.5662H105.119V80.7672H70.5391C71.1532 88.6773 74.7699 96.0669 80.6658 101.458C86.5616 106.849 94.3018 109.843 102.338 109.843C106.527 109.843 110.675 109.028 114.545 107.445C118.415 105.863 121.932 103.543 124.894 100.619C127.856 97.6952 130.206 94.2238 131.809 90.4032C133.412 86.5827 134.237 82.4878 134.237 78.3525V68.1033C134.237 59.7516 130.876 51.742 124.894 45.8365C118.912 39.931 110.798 36.6133 102.338 36.6133Z" fill="#64657A"/>
<path d="M73.4556 54.6621C73.0753 55.2774 72.7305 55.9134 72.4229 56.5671H104.82V80.7681H106.75V54.6621H73.4556Z" fill="#4D4E5E"/>
<path d="M105.064 80.7598H60.0742L77.5139 98.8793L90.5959 109.844H105.064V80.7598Z" fill="#64657A"/>
<path d="M73.9876 86.1058L73.8784 86.1998C73.5804 86.4562 73.5494 86.9025 73.8092 87.1966L82.6674 97.228C82.9272 97.5222 83.3793 97.5528 83.6772 97.2964L83.7865 97.2023C84.0845 96.9459 84.1154 96.4996 83.8557 96.2055L74.9974 86.1741C74.7377 85.8799 74.2856 85.8494 73.9876 86.1058Z" fill="#4D4E5E"/>
<path d="M82.6322 85.7288L82.5229 85.8228C82.2249 86.0792 82.1939 86.5255 82.4537 86.8197L91.312 96.8511C91.5717 97.1452 92.0238 97.1758 92.3217 96.9194L92.431 96.8253C92.729 96.5689 92.76 96.1226 92.5002 95.8285L83.6419 85.7971C83.3822 85.503 82.9301 85.4724 82.6322 85.7288Z" fill="#4D4E5E"/>
<path d="M91.2835 85.7327L91.1743 85.8267C90.8763 86.0831 90.8453 86.5294 91.1051 86.8236L99.9633 96.855C100.223 97.1491 100.675 97.1797 100.973 96.9233L101.082 96.8292C101.38 96.5728 101.411 96.1265 101.152 95.8324L92.2933 85.801C92.0336 85.5069 91.5815 85.4763 91.2835 85.7327Z" fill="#4D4E5E"/>
<path d="M104.467 36.3273C104.467 36.3273 102.03 11.6701 115.61 11.0172C129.19 10.3644 162.72 28.4123 158.661 37.3558C155.943 43.3748 148.56 40.4413 148.56 40.4413C148.56 40.4413 149.556 45.8074 143.26 45.8074C136.964 45.8074 137.634 37.3022 137.634 37.3022C137.634 37.3022 136.619 43.0528 132.397 43.1959C127.369 43.3569 126.21 31.4173 126.21 31.4173C124.007 31.7346 121.876 32.4276 119.913 33.4654C117.827 34.5145 116.098 36.1437 114.94 38.1518L104.467 36.3273Z" fill="#1BB0B5"/>
<path d="M116.855 36.9393L103.19 33.8647C102.439 33.6956 101.691 34.1598 101.52 34.9015L101.462 35.1543C101.29 35.896 101.761 36.6342 102.512 36.8033L116.177 39.8779C116.928 40.047 117.676 39.5828 117.847 38.8412L117.905 38.5883C118.077 37.8466 117.606 37.1084 116.855 36.9393Z" fill="#4D4E5E"/>
<path d="M105.064 56.5684H72.4229V80.7605H105.064V56.5684Z" fill="#363742"/>
</svg>
