<svg width="52" height="52" viewBox="0 0 52 52" fill="none" xmlns="http://www.w3.org/2000/svg">
<path d="M34.2517 9.00012C34.2517 7.89555 35.1471 7.00012 36.2517 7.00012H40.1326C41.2372 7.00012 42.1326 7.89555 42.1326 9.00012V23.5666H36.2517C35.1471 23.5666 34.2517 22.6712 34.2517 21.5666V9.00012Z" fill="#D9CABF"/>
<path d="M51.3774 41.0001C51.3774 42.1047 50.482 43.0001 49.3774 43.0001L45.4966 43.0001C44.392 43.0001 43.4966 42.1047 43.4966 41.0001V26.4337L49.3774 26.4337C50.482 26.4337 51.3774 27.3291 51.3774 28.4337V41.0001Z" fill="#D9CABF"/>
<path d="M36.2517 43.0001C35.1471 43.0001 34.2517 42.1047 34.2517 41.0001V28.4337C34.2517 27.3291 35.1471 26.4337 36.2517 26.4337H42.1326V41.0001C42.1326 42.1047 41.2372 43.0001 40.1326 43.0001H36.2517Z" fill="#D9CABF"/>
<path d="M49.3774 7C50.482 7 51.3774 7.89543 51.3774 9V21.5665C51.3774 22.671 50.482 23.5665 49.3774 23.5665L43.4966 23.5665V9C43.4966 7.89543 44.392 7 45.4966 7L49.3774 7Z" fill="#D9CABF"/>
<path d="M43.4958 42.3635H42.1326V26.4348H34.5544V23.5676H42.1326V7.63696H43.4958V42.3635ZM51.074 26.4348H43.4968V23.5676H51.074V26.4348Z" fill="#9D7B62"/>
<path d="M0 9.00025C0 7.89568 0.895431 7.00024 2 7.00024H14.5665C15.671 7.00024 16.5665 7.89567 16.5665 9.00024V23.5667H2C0.895431 23.5667 0 22.6713 0 21.5667V9.00025Z" fill="#ECE4DF"/>
<path d="M36.0002 41.0002C36.0002 42.1048 35.1048 43.0002 34.0002 43.0002L21.4338 43.0002C20.3292 43.0002 19.4338 42.1048 19.4338 41.0002L19.4338 26.4338L34.0002 26.4338C35.1048 26.4338 36.0002 27.3292 36.0002 28.4338L36.0002 41.0002Z" fill="#ECE4DF"/>
<path d="M2 43.0002C0.895431 43.0002 0 42.1048 0 41.0002L0 28.4338C0 27.3292 0.895431 26.4338 2 26.4338H16.5665V41.0002C16.5665 42.1048 15.671 43.0002 14.5665 43.0002H2Z" fill="#ECE4DF"/>
<path d="M34.0002 7.00012C35.1048 7.00012 36.0002 7.89555 36.0002 9.00012V21.5666C36.0002 22.6712 35.1048 23.5666 34.0002 23.5666L19.4338 23.5666L19.4338 9.00012C19.4338 7.89555 20.3292 7.00012 21.4338 7.00012L34.0002 7.00012Z" fill="#ECE4DF"/>
<path d="M19.4336 23.5677H35.3633V26.4349H19.4336V42.3636H16.5664V26.4349H0.637695V23.5677H16.5664V7.63708H19.4336V23.5677Z" fill="#B39580"/>
<path d="M17.1485 25.7588C16.806 22.6762 15.5729 16.7163 13.3809 17.5385C9.95541 18.8232 13.5484 22.5689 17.148 25.7588M17.148 25.7588C21.0184 29.1887 27.7657 27.6426 25.8827 32.0953C25.0389 34.0905 18.6894 28.8831 17.148 25.7588Z" stroke="#B39580" stroke-width="2"/>
</svg>
