<svg width="52" height="52" viewBox="0 0 52 52" fill="none" xmlns="http://www.w3.org/2000/svg">
<path d="M3.01438 12.977C3.47379 12.977 3.86054 12.977 4.24729 12.977C8.7758 12.9597 13.304 12.9446 17.832 12.9318C18.1605 12.9318 18.3452 12.8421 18.5132 12.553C20.9245 8.48429 23.3447 4.42032 25.7737 0.361049C25.8358 0.257998 25.9039 0.157913 26.0061 0C26.3709 0.601996 26.7069 1.16173 27.0407 1.72147C29.2128 5.36952 31.3825 9.01931 33.5496 12.6708C33.6821 12.8932 33.8402 12.9303 34.0703 12.9311C38.9016 12.9459 43.7326 12.9637 48.5633 12.9844H49C48.8229 13.2928 48.6844 13.5375 48.5459 13.7807C46.2264 17.7465 43.9061 21.7109 41.5851 25.6738C41.4481 25.9073 41.4496 26.0756 41.5851 26.3106C43.9975 30.4243 46.4025 34.5404 48.8002 38.659C48.8486 38.7427 48.8903 38.831 48.9637 38.9726C48.7805 38.9837 48.639 38.9993 48.4967 39C43.7033 39.0222 38.9099 39.0413 34.1165 39.0571C33.8092 39.0571 33.6472 39.1572 33.4966 39.4115C31.1292 43.4045 28.7552 47.3946 26.3746 51.3817C26.2626 51.57 26.1476 51.7524 25.9962 52C25.7351 51.567 25.508 51.1897 25.281 50.8101C23.0155 47.0014 20.7517 43.1917 18.4897 39.3811C18.3384 39.129 18.1734 39.0549 17.8903 39.0549C13.1095 39.0435 8.329 39.0269 3.54872 39.0052H3C3.36556 38.3735 3.69025 37.8071 4.01948 37.2429C6.15481 33.5855 8.29192 29.9318 10.4308 26.2817C10.5541 26.0712 10.5526 25.9251 10.4308 25.7138C8.00179 21.5695 5.57986 17.4216 3.165 13.2699C3.12337 13.2054 3.09385 13.1379 3.01438 12.977ZM26.0121 35.2865V35.2924C27.715 35.2924 29.4179 35.2924 31.1201 35.2968C31.354 35.2968 31.5122 35.2516 31.6408 35.0314C33.3518 32.1074 35.0704 29.1872 36.7965 26.2706C36.9131 26.0749 36.9191 25.9311 36.8018 25.7324C35.0752 22.8178 33.3561 19.898 31.6446 16.973C31.5182 16.7573 31.3752 16.695 31.1337 16.6957C27.7158 16.7002 24.2981 16.6977 20.8806 16.6883C20.6218 16.6883 20.4689 16.7669 20.3395 16.9849C18.6275 19.9089 16.9041 22.8262 15.1967 25.7524C15.1627 25.8247 15.1451 25.9033 15.1451 25.9829C15.1451 26.0626 15.1627 26.1412 15.1967 26.2135C16.9178 29.1607 18.6505 32.1015 20.3947 35.0359C20.4459 35.1044 20.5117 35.1612 20.5875 35.2024C20.6633 35.2436 20.7473 35.2683 20.8337 35.2746C22.5563 35.2924 24.285 35.2865 26.0121 35.2865ZM29.2227 39.0912H22.7773C23.8604 40.9239 24.9132 42.7039 26.0015 44.547L29.2227 39.0912ZM26 7.44043L22.7781 12.8947H29.2166C28.1411 11.0672 27.0921 9.29164 26 7.44043ZM12.8171 22.2019L16.0338 16.7306H9.60733C10.6828 18.5633 11.7273 20.3433 12.8171 22.2019ZM42.3859 16.7388H35.9662L39.1859 22.1997C40.2667 20.3522 41.3119 18.5714 42.3859 16.7388ZM16.0368 35.2546C14.9522 33.4152 13.8994 31.6315 12.8134 29.7906L9.61414 35.2546H16.0368ZM42.3912 35.2546C41.3157 33.4241 40.272 31.6411 39.1806 29.7892C38.0885 31.6478 37.044 33.4263 35.9693 35.2546H42.3912Z" fill="#F3BA41"/>
</svg>
