<svg width="172" height="172" viewBox="0 0 172 172" fill="none" xmlns="http://www.w3.org/2000/svg">
<g filter="url(#filter0_i_919_14967)">
<rect x="16.4277" y="43.5664" width="25.6579" height="84.8684" fill="#D9CABF"/>
</g>
<g filter="url(#filter1_i_919_14967)">
<path d="M29.168 11C29.8127 11 30.4224 11.281 30.8242 11.7852C32.3402 13.6883 36.1 18.6612 37.0928 22.3486C37.4323 23.6099 37.5876 25.0944 37.6338 26.5879C37.7434 30.1372 35.3984 32.9562 32.2168 34.1133V36.6582H44.0596V43.5654H14.4541V36.6582H26.2959V34.3008C23.0082 33.3402 20.4636 30.6416 20.3828 27.085C20.3452 25.4281 20.4459 23.7525 20.8105 22.3486C21.784 18.6011 25.9675 13.5534 27.5771 11.7109C27.9784 11.2516 28.5581 11 29.168 11Z" fill="#9D7B62"/>
</g>
<g filter="url(#filter2_i_919_14967)">
<path d="M29.168 161C29.8127 161 30.4224 160.719 30.8242 160.215C32.3402 158.312 36.1 153.339 37.0928 149.651C37.4323 148.39 37.5876 146.906 37.6338 145.412C37.7434 141.863 35.3984 139.044 32.2168 137.887V135.342H44.0596V128.435H14.4541V135.342H26.2959V137.699C23.0082 138.66 20.4636 141.358 20.3828 144.915C20.3452 146.572 20.4459 148.248 20.8105 149.651C21.784 153.399 25.9675 158.447 27.5771 160.289C27.9784 160.748 28.5581 161 29.168 161Z" fill="#9D7B62"/>
</g>
<rect x="44.0596" y="43.5664" width="83.8816" height="84.8684" fill="#ECE4DF"/>
<g filter="url(#filter3_i_919_14967)">
<rect x="129.914" y="43.5664" width="25.6579" height="84.8684" fill="#D9CABF"/>
</g>
<g filter="url(#filter4_i_919_14967)">
<path d="M142.655 11C143.3 11.0001 143.91 11.2809 144.312 11.7852C145.828 13.6883 149.587 18.6612 150.58 22.3486C150.92 23.6099 151.075 25.0944 151.121 26.5879C151.231 30.1369 148.885 32.955 145.704 34.1123V36.6582H157.546V43.5654H127.94V36.6582H139.783V34.3008C136.495 33.3404 133.95 30.6417 133.869 27.085C133.832 25.4281 133.932 23.7525 134.297 22.3486C135.27 18.6012 139.454 13.5536 141.063 11.7109C141.465 11.2516 142.045 11 142.655 11Z" fill="#9D7B62"/>
</g>
<g filter="url(#filter5_i_919_14967)">
<path d="M142.655 161C143.3 161 143.91 160.719 144.312 160.215C145.828 158.312 149.587 153.339 150.58 149.651C150.92 148.39 151.075 146.906 151.121 145.412C151.231 141.863 148.885 139.045 145.704 137.888V135.342H157.546V128.435H127.94V135.342H139.783V137.699C136.495 138.66 133.95 141.358 133.869 144.915C133.832 146.572 133.932 148.248 134.297 149.651C135.27 153.399 139.454 158.446 141.063 160.289C141.465 160.748 142.045 161 142.655 161Z" fill="#9D7B62"/>
</g>
<path d="M62.0148 72.5451C62.4892 72.5451 62.8884 72.5451 63.2877 72.5451C67.9631 72.527 72.6382 72.5113 77.313 72.4979C77.6522 72.4979 77.8428 72.4043 78.0163 72.1025C80.5058 67.8557 83.0045 63.6138 85.5123 59.3769C85.5763 59.2693 85.6467 59.1648 85.7521 59C86.1288 59.6283 86.4757 60.2126 86.8203 60.7968C89.0629 64.6046 91.3029 68.4141 93.5403 72.2255C93.6771 72.4576 93.8404 72.4963 94.0779 72.4971C99.0658 72.5126 104.054 72.5312 109.041 72.5528H109.492C109.309 72.8747 109.166 73.1301 109.023 73.3839C106.628 77.5234 104.233 81.6613 101.836 85.7977C101.695 86.0414 101.697 86.2171 101.836 86.4624C104.327 90.7561 106.81 95.0524 109.285 99.3513C109.335 99.4387 109.378 99.5308 109.454 99.6786C109.265 99.6902 109.119 99.7065 108.972 99.7072C104.023 99.7304 99.0744 99.7503 94.1256 99.7668C93.8083 99.7668 93.6411 99.8713 93.4856 100.137C91.0414 104.305 88.5904 108.469 86.1327 112.631C86.017 112.827 85.8983 113.018 85.742 113.276C85.4724 112.824 85.238 112.431 85.0036 112.034C82.6646 108.059 80.3274 104.082 77.9921 100.105C77.8358 99.8419 77.6655 99.7645 77.3732 99.7645C72.4374 99.7526 67.5018 99.7354 62.5665 99.7127H62C62.3774 99.0534 62.7126 98.4621 63.0525 97.8733C65.2571 94.0557 67.4635 90.242 69.6718 86.4322C69.7991 86.2124 69.7976 86.06 69.6718 85.8395C67.164 81.5138 64.6635 77.1842 62.1703 72.8508C62.1274 72.7834 62.0969 72.713 62.0148 72.5451ZM85.7584 95.8311V95.8373C87.5165 95.8373 89.2747 95.8373 91.032 95.842C91.2735 95.842 91.4368 95.7948 91.5696 95.5649C93.3361 92.513 95.1104 89.4648 96.8925 86.4206C97.0129 86.2163 97.0191 86.0662 96.898 85.8588C95.1154 82.8166 93.3406 79.769 91.5736 76.716C91.4431 76.4908 91.2954 76.4258 91.0461 76.4266C87.5173 76.4313 83.9888 76.4287 80.4605 76.4189C80.1933 76.4189 80.0354 76.5009 79.9018 76.7284C78.1343 79.7804 76.3551 82.8254 74.5922 85.8797C74.5571 85.9552 74.5389 86.0373 74.5389 86.1204C74.5389 86.2035 74.5571 86.2856 74.5922 86.361C76.3691 89.4372 78.158 92.5068 79.9589 95.5696C80.0117 95.6411 80.0796 95.7004 80.1579 95.7434C80.2361 95.7864 80.3228 95.8121 80.4121 95.8187C82.1905 95.8373 83.9752 95.8311 85.7584 95.8311ZM89.0731 99.8024H82.4187C83.5369 101.715 84.6238 103.573 85.7474 105.497L89.0731 99.8024ZM85.7459 66.7661L82.4195 72.4592H89.0668C87.9565 70.5517 86.8734 68.6984 85.7459 66.7661ZM72.1355 82.1738L75.4564 76.463H68.8216C69.932 78.3759 71.0103 80.2338 72.1355 82.1738ZM102.663 76.4715H96.0353L99.3594 82.1715C100.475 80.2431 101.554 78.3844 102.663 76.4715ZM75.4596 95.7979C74.3398 93.878 73.2529 92.0162 72.1316 90.0947L68.8286 95.7979H75.4596ZM102.669 95.7979C101.558 93.8873 100.481 92.0262 99.3539 90.0932C98.2264 92.0332 97.148 93.8896 96.0385 95.7979H102.669Z" fill="#F3BA41"/>
<defs>
<filter id="filter0_i_919_14967" x="16.4277" y="43.5664" width="25.6582" height="84.8691" filterUnits="userSpaceOnUse" color-interpolation-filters="sRGB">
<feFlood flood-opacity="0" result="BackgroundImageFix"/>
<feBlend mode="normal" in="SourceGraphic" in2="BackgroundImageFix" result="shape"/>
<feColorMatrix in="SourceAlpha" type="matrix" values="0 0 0 0 0 0 0 0 0 0 0 0 0 0 0 0 0 0 127 0" result="hardAlpha"/>
<feOffset dx="8"/>
<feComposite in2="hardAlpha" operator="arithmetic" k2="-1" k3="1"/>
<feColorMatrix type="matrix" values="0 0 0 0 0 0 0 0 0 0 0 0 0 0 0 0 0 0 0.25 0"/>
<feBlend mode="normal" in2="shape" result="effect1_innerShadow_919_14967"/>
</filter>
<filter id="filter1_i_919_14967" x="14.4541" y="11" width="29.6055" height="32.5664" filterUnits="userSpaceOnUse" color-interpolation-filters="sRGB">
<feFlood flood-opacity="0" result="BackgroundImageFix"/>
<feBlend mode="normal" in="SourceGraphic" in2="BackgroundImageFix" result="shape"/>
<feColorMatrix in="SourceAlpha" type="matrix" values="0 0 0 0 0 0 0 0 0 0 0 0 0 0 0 0 0 0 127 0" result="hardAlpha"/>
<feOffset dx="-2"/>
<feComposite in2="hardAlpha" operator="arithmetic" k2="-1" k3="1"/>
<feColorMatrix type="matrix" values="0 0 0 0 0 0 0 0 0 0 0 0 0 0 0 0 0 0 0.25 0"/>
<feBlend mode="normal" in2="shape" result="effect1_innerShadow_919_14967"/>
</filter>
<filter id="filter2_i_919_14967" x="14.4541" y="128.434" width="29.6055" height="32.5664" filterUnits="userSpaceOnUse" color-interpolation-filters="sRGB">
<feFlood flood-opacity="0" result="BackgroundImageFix"/>
<feBlend mode="normal" in="SourceGraphic" in2="BackgroundImageFix" result="shape"/>
<feColorMatrix in="SourceAlpha" type="matrix" values="0 0 0 0 0 0 0 0 0 0 0 0 0 0 0 0 0 0 127 0" result="hardAlpha"/>
<feOffset dx="-2"/>
<feComposite in2="hardAlpha" operator="arithmetic" k2="-1" k3="1"/>
<feColorMatrix type="matrix" values="0 0 0 0 0 0 0 0 0 0 0 0 0 0 0 0 0 0 0.25 0"/>
<feBlend mode="normal" in2="shape" result="effect1_innerShadow_919_14967"/>
</filter>
<filter id="filter3_i_919_14967" x="129.914" y="43.5664" width="25.6582" height="84.8691" filterUnits="userSpaceOnUse" color-interpolation-filters="sRGB">
<feFlood flood-opacity="0" result="BackgroundImageFix"/>
<feBlend mode="normal" in="SourceGraphic" in2="BackgroundImageFix" result="shape"/>
<feColorMatrix in="SourceAlpha" type="matrix" values="0 0 0 0 0 0 0 0 0 0 0 0 0 0 0 0 0 0 127 0" result="hardAlpha"/>
<feOffset dx="-8"/>
<feComposite in2="hardAlpha" operator="arithmetic" k2="-1" k3="1"/>
<feColorMatrix type="matrix" values="0 0 0 0 0 0 0 0 0 0 0 0 0 0 0 0 0 0 0.25 0"/>
<feBlend mode="normal" in2="shape" result="effect1_innerShadow_919_14967"/>
</filter>
<filter id="filter4_i_919_14967" x="127.94" y="11" width="29.6055" height="32.5664" filterUnits="userSpaceOnUse" color-interpolation-filters="sRGB">
<feFlood flood-opacity="0" result="BackgroundImageFix"/>
<feBlend mode="normal" in="SourceGraphic" in2="BackgroundImageFix" result="shape"/>
<feColorMatrix in="SourceAlpha" type="matrix" values="0 0 0 0 0 0 0 0 0 0 0 0 0 0 0 0 0 0 127 0" result="hardAlpha"/>
<feOffset dx="-2"/>
<feComposite in2="hardAlpha" operator="arithmetic" k2="-1" k3="1"/>
<feColorMatrix type="matrix" values="0 0 0 0 0 0 0 0 0 0 0 0 0 0 0 0 0 0 0.25 0"/>
<feBlend mode="normal" in2="shape" result="effect1_innerShadow_919_14967"/>
</filter>
<filter id="filter5_i_919_14967" x="127.94" y="128.434" width="29.6055" height="32.5664" filterUnits="userSpaceOnUse" color-interpolation-filters="sRGB">
<feFlood flood-opacity="0" result="BackgroundImageFix"/>
<feBlend mode="normal" in="SourceGraphic" in2="BackgroundImageFix" result="shape"/>
<feColorMatrix in="SourceAlpha" type="matrix" values="0 0 0 0 0 0 0 0 0 0 0 0 0 0 0 0 0 0 127 0" result="hardAlpha"/>
<feOffset dx="-2"/>
<feComposite in2="hardAlpha" operator="arithmetic" k2="-1" k3="1"/>
<feColorMatrix type="matrix" values="0 0 0 0 0 0 0 0 0 0 0 0 0 0 0 0 0 0 0.25 0"/>
<feBlend mode="normal" in2="shape" result="effect1_innerShadow_919_14967"/>
</filter>
</defs>
</svg>
