<svg width="172" height="172" viewBox="0 0 172 172" fill="none" xmlns="http://www.w3.org/2000/svg">
<path d="M89.9513 32.0293L92.9589 33.1572L18.6835 86.167L21.5268 111.732L14.7596 116.243C14.0077 113.988 12.0666 107.747 11.1643 100.829C10.262 93.9117 13.2948 86.9189 14.9239 84.2872L89.9513 32.0293Z" fill="#98250B"/>
<path d="M18.5193 113.236V86.543H16.6395C15.5116 88.6734 13.2559 94.2125 13.2559 99.3255C13.2559 104.438 15.0103 111.732 15.8876 114.74L18.5193 113.236Z" fill="#3C0C01"/>
<path d="M159.504 85.4157L94.8389 61.7305L14.7598 116.244L83.9361 148.952L159.504 85.4157Z" fill="#98250B"/>
<path d="M154.616 84.6628V62.1055L18.5195 86.5426V113.236L83.1844 143.312L154.616 84.6628Z" fill="#FCEECF"/>
<path d="M160.632 58.3453L92.9593 33.1562L17.7676 86.1661L86.192 116.243L160.632 58.3453Z" fill="#98250B"/>
<path d="M38.0686 115.116C38.0686 111.807 41.5776 108.975 43.332 107.973L51.9791 112.108C50.4753 113.612 47.4676 116.92 47.4676 118.123C47.4676 119.627 48.2195 130.53 47.8435 132.034C47.5428 133.237 38.1939 142.185 31.6773 148.576L32.4293 140.305L23.4062 141.057C30.1735 136.044 37.4671 128.425 38.0686 127.522C38.8205 126.395 38.0686 119.251 38.0686 115.116Z" fill="#EE6C4F"/>
<path d="M99.3493 35.41C99.3493 35.41 78.3007 68.3075 92.7554 79.8515C107.21 91.3955 153.593 69.3937 153.593 69.3937" stroke="#F6CB6F" stroke-width="2" stroke-miterlimit="10" stroke-linecap="round"/>
<path d="M82.9147 77.4915L88.1333 82.1025L91.8396 77.9801L95.6467 81.3439L91.9404 85.4663L97.1658 90.0833L93.9914 93.614L88.766 88.997L79.1524 99.6899L75.3453 96.3261L84.959 85.6332L79.7404 81.0222L82.9147 77.4915Z" fill="#F6CB6F"/>
</svg>
