<svg width="316" height="145" viewBox="0 0 316 145" fill="none" xmlns="http://www.w3.org/2000/svg">
<g clip-path="url(#clip0_1011_12240)">
<path d="M138.592 67.8106L41.592 -0.188631L-0.408169 -0.18905L-0.407901 56.3106L139.172 98.5884L138.592 67.8106Z" fill="url(#paint0_linear_1011_12240)"/>
<path d="M176.408 67.8106L273.408 -0.188631L315.408 -0.18905L315.408 56.3106L175.828 98.5884L176.408 67.8106Z" fill="url(#paint1_linear_1011_12240)"/>
<path d="M143.592 128.311L122.592 144.811H-0.408203V130.811L127.092 101.311L143.592 128.311Z" fill="url(#paint2_linear_1011_12240)"/>
<path d="M171.592 128.311L192.592 144.811H315.592V130.811L188.092 101.311L171.592 128.311Z" fill="url(#paint3_linear_1011_12240)"/>
<path d="M172.092 108.811L198.091 -0.187906L123.592 -0.188556L149.592 108.811L172.092 108.811Z" fill="url(#paint4_linear_1011_12240)"/>
<path d="M112.586 52.362C115.924 35.6226 140.752 29.6941 152.749 28.8223C196.041 28.8223 183.336 73.7516 201.308 94.8948C204.033 98.1012 101.111 96.826 96.4166 93.1643C91.7223 89.5026 108.413 73.2863 112.586 52.362Z" fill="#7E7E95"/>
<path d="M150.037 30.5645H155.316C173.125 30.5645 187.562 47.1534 187.562 67.617V82.3134C187.562 102.777 173.125 119.366 155.316 119.366H150.037C132.227 119.366 117.79 102.777 117.79 82.3134V67.617C117.79 47.1534 132.227 30.5645 150.037 30.5645Z" fill="#D9CABF"/>
<path d="M121.396 60.752H117.277C116.502 60.7491 115.733 60.9001 115.016 61.1962C114.3 61.4923 113.648 61.9276 113.101 62.4771C112.553 63.0266 112.119 63.6793 111.825 64.3975C111.53 65.1157 111.381 65.8852 111.385 66.6615V71.532C111.385 73.3289 112.098 75.0523 113.367 76.3229C114.637 77.5936 116.358 78.3074 118.153 78.3074H121.396C121.553 78.3074 121.707 78.2766 121.852 78.2168C121.996 78.1569 122.127 78.0692 122.237 77.9587C122.348 77.8481 122.435 77.7169 122.495 77.5724C122.555 77.428 122.586 77.2732 122.586 77.1168V61.9642C122.589 61.806 122.56 61.6489 122.501 61.5019C122.443 61.355 122.356 61.2212 122.245 61.1083C122.134 60.9955 122.002 60.9058 121.857 60.8446C121.711 60.7835 121.554 60.752 121.396 60.752Z" fill="#D9CABF"/>
<path d="M138.257 78.5071C143.595 78.5071 147.922 74.1639 147.922 68.8063C147.922 63.4487 143.595 59.1055 138.257 59.1055C132.919 59.1055 128.592 63.4487 128.592 68.8063C128.592 74.1639 132.919 78.5071 138.257 78.5071Z" fill="white"/>
<path d="M138.466 75.9295C142.262 75.9295 145.34 72.8406 145.34 69.0302C145.34 65.2198 142.262 62.1309 138.466 62.1309C134.669 62.1309 131.592 65.2198 131.592 69.0302C131.592 72.8406 134.669 75.9295 138.466 75.9295Z" fill="#3C3C3B"/>
<path d="M184.912 44.8352L181.212 45.3638L182.98 79.6636C183.151 84.7057 178.096 91.9009 173.021 91.9009L164.49 89.3304L152.28 85.8591L139.847 89.3304L131.284 91.9009C126.709 91.9009 121.431 84.7057 121.612 79.6636L122.54 45.3638L118.84 44.3066L111.439 110.279L135.155 132.051H169.427L194.955 114.673L184.912 44.8352Z" fill="#7E7E95"/>
<path d="M167.592 97.7875C165.796 99.3072 161.468 102.57 155.979 102.569C150.56 102.568 145.225 99.3045 143.592 97.5672" stroke="#3C3C3B" stroke-width="2" stroke-linecap="round"/>
<path d="M155.342 89.8899H157.71C160.186 89.8899 162.035 86.7186 161.332 83.4933L159.007 71.9665C158.564 69.8018 157.072 68.2324 155.375 68.2324C153.299 68.2324 151.612 70.4945 151.612 73.2977V84.8246C151.58 87.6278 153.266 89.8899 155.342 89.8899Z" fill="#B39580"/>
<path d="M170.791 78.7317C176.129 78.7317 180.456 74.3885 180.456 69.0309C180.456 63.6733 176.129 59.3301 170.791 59.3301C165.453 59.3301 161.126 63.6733 161.126 69.0309C161.126 74.3885 165.453 78.7317 170.791 78.7317Z" fill="white"/>
<path d="M170.792 75.9295C174.588 75.9295 177.666 72.8406 177.666 69.0302C177.666 65.2198 174.588 62.1309 170.792 62.1309C166.996 62.1309 163.918 65.2198 163.918 69.0302C163.918 72.8406 166.996 75.9295 170.792 75.9295Z" fill="#3C3C3B"/>
<path d="M181.62 53.4054C181.746 54.0697 181.608 54.7568 181.235 55.3207C180.863 55.8845 180.285 56.2808 179.625 56.4252L164.708 57.7221C164.035 57.691 163.4 57.399 162.938 56.908C162.476 56.4169 162.223 55.7653 162.233 55.0909C162.104 54.4268 162.239 53.7387 162.609 53.1729C162.98 52.6071 163.556 52.2082 164.216 52.0613L179.133 50.7644C179.81 50.7926 180.449 51.0846 180.914 51.5781C181.378 52.0716 181.632 52.7274 181.62 53.4054Z" fill="#7E7E95"/>
<path d="M146.122 53.9465C146.206 54.6419 146.017 55.3428 145.594 55.9007C145.171 56.4587 144.547 56.8297 143.855 56.9354L128.355 57.2388C127.661 57.1578 127.026 56.8102 126.584 56.2695C126.142 55.7288 125.926 55.0372 125.984 54.3407C125.899 53.6482 126.088 52.9501 126.509 52.3942C126.93 51.8383 127.551 51.4685 128.239 51.3629L143.708 51.0601C144.408 51.1281 145.053 51.4687 145.505 52.0087C145.956 52.5486 146.178 53.2446 146.122 53.9465Z" fill="#7E7E95"/>
<path d="M154.336 49.5144C146.079 49.5144 125.181 48.4517 114.092 46.8574C115.88 40.6569 122.786 28.1297 130.468 24.7495C143.884 18.8469 159.702 19.7518 167.751 24.004C173.545 27.0649 184.904 36.8516 185.441 46.9499C179.538 48.5443 162.385 49.5144 154.336 49.5144Z" fill="#C33413"/>
<path d="M80.1632 40.5684L83.5918 39.5684L82.5918 42.9969L83.5918 46.5684L80.1632 45.5684L76.5918 46.5684L77.5918 42.9969L76.5918 39.5684L80.1632 40.5684Z" fill="white"/>
<path d="M75.1632 13.5684L78.5918 12.5684L77.5918 15.9969L78.5918 19.5684L75.1632 18.5684L71.5918 19.5684L72.5918 15.9969L71.5918 12.5684L75.1632 13.5684Z" fill="white"/>
<path d="M39.1632 101.568L42.5918 100.568L41.5918 103.997L42.5918 107.568L39.1632 106.568L35.5918 107.568L36.5918 103.997L35.5918 100.568L39.1632 101.568Z" fill="white"/>
<path d="M68.1632 120.568L71.5918 119.568L70.5918 122.997L71.5918 126.568L68.1632 125.568L64.5918 126.568L65.5918 122.997L64.5918 119.568L68.1632 120.568Z" fill="white"/>
<path d="M246.163 46.5684L249.592 45.5684L248.592 48.9969L249.592 52.5684L246.163 51.5684L242.592 52.5684L243.592 48.9969L242.592 45.5684L246.163 46.5684Z" fill="white"/>
<path d="M232.163 89.5684L235.592 88.5684L234.592 91.9969L235.592 95.5684L232.163 94.5684L228.592 95.5684L229.592 91.9969L228.592 88.5684L232.163 89.5684Z" fill="white"/>
<path d="M274.163 49.5684L277.592 48.5684L276.592 51.9969L277.592 55.5684L274.163 54.5684L270.592 55.5684L271.592 51.9969L270.592 48.5684L274.163 49.5684Z" fill="white"/>
</g>
<defs>
<linearGradient id="paint0_linear_1011_12240" x1="16.0923" y1="28.3105" x2="100.592" y2="68.3105" gradientUnits="userSpaceOnUse">
<stop offset="0.144231" stop-color="#FCEECF" stop-opacity="0"/>
<stop offset="1" stop-color="#FCEECF"/>
</linearGradient>
<linearGradient id="paint1_linear_1011_12240" x1="300.093" y1="22.3105" x2="209.593" y2="69.8105" gradientUnits="userSpaceOnUse">
<stop offset="0.144231" stop-color="#FCEECF" stop-opacity="0"/>
<stop offset="1" stop-color="#FCEECF"/>
</linearGradient>
<linearGradient id="paint2_linear_1011_12240" x1="59.5918" y1="137.811" x2="140.592" y2="93.3106" gradientUnits="userSpaceOnUse">
<stop offset="0.144231" stop-color="#FCEECF" stop-opacity="0"/>
<stop offset="1" stop-color="#FCEECF"/>
</linearGradient>
<linearGradient id="paint3_linear_1011_12240" x1="280.092" y1="147.811" x2="161.592" y2="89.8106" gradientUnits="userSpaceOnUse">
<stop offset="0.144231" stop-color="#FCEECF" stop-opacity="0"/>
<stop offset="1" stop-color="#FCEECF"/>
</linearGradient>
<linearGradient id="paint4_linear_1011_12240" x1="155.592" y1="2.31055" x2="152.092" y2="77.3106" gradientUnits="userSpaceOnUse">
<stop offset="0.0336538" stop-color="#FCEECF" stop-opacity="0"/>
<stop offset="0.826923" stop-color="#FCEECF"/>
</linearGradient>
<clipPath id="clip0_1011_12240">
<rect width="316" height="145" fill="white"/>
</clipPath>
</defs>
</svg>
