<svg width="33" height="33" viewBox="0 0 33 33" fill="none" xmlns="http://www.w3.org/2000/svg">
<g filter="url(#filter0_i_482_2788)">
<path d="M16.4353 4.42456C19.5239 4.42469 22.0281 6.92874 22.0281 10.0173V11.8816C22.0279 14.97 19.5238 17.4733 16.4353 17.4734C13.3467 17.4734 10.8427 14.9701 10.8425 11.8816V10.0173C10.8425 6.92866 13.3466 4.42456 16.4353 4.42456ZM16.3416 7.22046C14.5398 7.22046 13.0789 8.68143 13.0789 10.4832C13.0789 12.2849 14.5398 13.7458 16.3416 13.7458H16.5281C18.3297 13.7458 19.7898 12.2848 19.7898 10.4832C19.7898 8.68147 18.3297 7.22053 16.5281 7.22046H16.3416Z" fill="#F9DC9F"/>
</g>
<path d="M27.7498 27.3837L26.5578 28.5758H6.44204L5.25 27.3837V12.1852L6.44204 10.9932H26.5578L27.7498 12.1852V27.3837Z" fill="#FCEECF"/>
<path d="M27.7498 26.7305L26.5578 27.8317H6.44204L5.25 26.7305V12.6912L6.44204 11.5901H26.5578L27.7498 12.6912V26.7305Z" fill="#F9DC9F"/>
<path d="M27.75 26.7909L26.5576 27.8915H6.44238L5.25 26.7909V21.579L27.75 18.5917V26.7909Z" fill="#F6CB6F"/>
<path d="M16.4268 15.3125C17.3116 15.3125 18.09 15.7667 18.543 16.4541C18.8308 16.8489 19.002 17.3334 19.002 17.8584C19.0019 18.4989 18.7478 19.0781 18.3359 19.5068C18.0858 19.794 17.7734 20.0254 17.418 20.1768L17.8037 21.79L18.1533 23.2119H18.1445L18.2148 23.5068H14.7871L15.6357 20.251C14.6244 19.9186 13.8936 18.9673 13.8936 17.8447C13.8939 16.446 15.028 15.3125 16.4268 15.3125Z" fill="#C07B0C"/>
<path d="M16.5964 15.4631C17.9247 15.4634 19.0015 16.5363 19.0017 17.8586C19.0016 18.9034 18.3286 19.7892 17.3914 20.1165L18.1521 23.2122H15.0388L15.7986 20.1155C14.8625 19.7877 14.1903 18.9026 14.1902 17.8586C14.1904 16.5362 15.2679 15.4631 16.5964 15.4631Z" fill="#905309"/>
<defs>
<filter id="filter0_i_482_2788" x="10.8425" y="4.42456" width="11.1855" height="13.0488" filterUnits="userSpaceOnUse" color-interpolation-filters="sRGB">
<feFlood flood-opacity="0" result="BackgroundImageFix"/>
<feBlend mode="normal" in="SourceGraphic" in2="BackgroundImageFix" result="shape"/>
<feColorMatrix in="SourceAlpha" type="matrix" values="0 0 0 0 0 0 0 0 0 0 0 0 0 0 0 0 0 0 127 0" result="hardAlpha"/>
<feOffset dy="-1"/>
<feComposite in2="hardAlpha" operator="arithmetic" k2="-1" k3="1"/>
<feColorMatrix type="matrix" values="0 0 0 0 0 0 0 0 0 0 0 0 0 0 0 0 0 0 0.25 0"/>
<feBlend mode="normal" in2="shape" result="effect1_innerShadow_482_2788"/>
</filter>
</defs>
</svg>
