<svg width="412" height="285" viewBox="0 0 412 285" fill="none" xmlns="http://www.w3.org/2000/svg">
<g clip-path="url(#clip0_482_3437)">
<path d="M333.881 145.249H-57.1973V284.963H333.881V145.249Z" fill="#403126"/>
<path d="M333.881 133.998H-70V145.322H333.881V133.998Z" fill="#614A3A"/>
<path d="M458.623 145.249H333.881V284.963H458.623V145.249Z" fill="#614A3A"/>
<path d="M463 134.144H333.881V145.468H463V134.144Z" fill="#B29581"/>
<path d="M117.004 141.389C131.951 141.389 144.068 138.064 144.068 133.961C144.068 129.859 131.951 126.533 117.004 126.533C102.057 126.533 89.9404 129.859 89.9404 133.961C89.9404 138.064 102.057 141.389 117.004 141.389Z" fill="#403126"/>
<mask id="mask0_482_3437" style="mask-type:luminance" maskUnits="userSpaceOnUse" x="89" y="126" width="56" height="16">
<path d="M117.004 141.389C131.951 141.389 144.068 138.064 144.068 133.961C144.068 129.859 131.951 126.533 117.004 126.533C102.057 126.533 89.9404 129.859 89.9404 133.961C89.9404 138.064 102.057 141.389 117.004 141.389Z" fill="white"/>
</mask>
<g mask="url(#mask0_482_3437)">
<path d="M130.463 143.757C137.977 143.757 144.068 139.29 144.068 133.78C144.068 128.27 137.977 123.803 130.463 123.803C122.95 123.803 116.858 128.27 116.858 133.78C116.858 139.29 122.95 143.757 130.463 143.757Z" fill="#614A3A"/>
</g>
<path d="M117.005 0H111.789V135.163H117.005V0Z" fill="#403126"/>
<path d="M190.027 23.5953H45.6245C43.8008 23.5953 42.3418 22.1388 42.3418 20.3181C42.3418 18.4975 43.8008 17.041 45.6245 17.041H189.99C191.814 17.041 193.273 18.4975 193.273 20.3181C193.309 22.1023 191.85 23.5953 190.027 23.5953Z" fill="#403126"/>
<path d="M122.221 0H117.005V135.163H122.221V0Z" fill="#614A3A"/>
<path d="M190.027 23.5953H120.288C118.464 23.5953 117.005 22.1388 117.005 20.3181C117.005 18.4975 118.464 17.041 120.288 17.041H190.027C191.85 17.041 193.309 18.4975 193.309 20.3181C193.309 22.1023 191.85 23.5953 190.027 23.5953Z" fill="#614A3A"/>
<path d="M43.4359 20.0996L24.834 88.6642" stroke="#FCEECF" stroke-width="3.7401" stroke-miterlimit="10"/>
<path d="M61.6727 88.6642L43.4355 20.0996" stroke="#FCEECF" stroke-width="3.7401" stroke-miterlimit="10"/>
<path d="M43.4356 108.655C55.8369 108.655 65.8674 99.5519 65.8674 88.3369H21.0039C21.0039 99.5519 31.0344 108.655 43.4356 108.655Z" fill="#99260C"/>
<path d="M43.4355 24.3604C45.7923 24.3604 47.703 22.453 47.703 20.1001C47.703 17.7472 45.7923 15.8398 43.4355 15.8398C41.0786 15.8398 39.168 17.7472 39.168 20.1001C39.168 22.453 41.0786 24.3604 43.4355 24.3604Z" fill="#FCEECF"/>
<path d="M189.99 20.0996L171.388 88.6642" stroke="#FCEECF" stroke-width="3.7401" stroke-miterlimit="10"/>
<path d="M208.226 88.6642L189.989 20.0996" stroke="#FCEECF" stroke-width="3.7401" stroke-miterlimit="10"/>
<path d="M189.989 108.655C202.391 108.655 212.421 99.5519 212.421 88.3369H167.558C167.558 99.5519 177.588 108.655 189.989 108.655Z" fill="#99260C"/>
<path d="M189.989 24.3604C192.346 24.3604 194.257 22.453 194.257 20.1001C194.257 17.7472 192.346 15.8398 189.989 15.8398C187.632 15.8398 185.722 17.7472 185.722 20.1001C185.722 22.453 187.632 24.3604 189.989 24.3604Z" fill="#FCEECF"/>
<path d="M457.399 90.0353L453.33 84.5703L403.564 121.494L407.632 126.959L457.399 90.0353Z" fill="#8A3F0A"/>
<path d="M449.993 90.0382L445.925 84.5732L396.158 121.497L400.227 126.962L449.993 90.0382Z" fill="#BA4D0D"/>
<path d="M444.996 86.0656L440.928 80.6006L391.161 117.525L395.23 122.99L444.996 86.0656Z" fill="#BA4D0D"/>
<path d="M364.547 90.0623L360.294 95.3857L408.771 133.987L413.024 128.664L364.547 90.0623Z" fill="#8A3F0A"/>
<path d="M371.716 87.5009L367.463 92.8242L415.94 131.426L420.193 126.102L371.716 87.5009Z" fill="#BA4D0D"/>
<path d="M429.517 134.835H383.56L367.073 101.663H446.113L429.517 134.835Z" fill="#BF7A0B"/>
<path d="M367.656 101.19H445.565C446.441 101.19 446.988 102.101 446.587 102.865L444.471 107.126C444.289 107.526 443.888 107.745 443.45 107.745H369.772C369.334 107.745 368.933 107.49 368.75 107.089L366.635 102.829C366.234 102.064 366.781 101.19 367.656 101.19Z" fill="#FADDA0"/>
<g opacity="0.68">
<path d="M321.298 131.994V95.9458C321.298 90.7388 324.325 86.0416 328.994 84.0025L329.76 83.6748V74.1348H338.076V83.6748L338.842 84.0025C343.511 86.0416 346.538 90.7388 346.538 95.9458V131.994H321.298Z" fill="#AAF0F2"/>
<path d="M336.763 75.3731V82.8012V84.4762L338.295 85.1316C342.489 86.9522 345.225 91.2125 345.225 95.9097V130.72H322.574V95.9461C322.574 91.2489 325.31 87.0251 329.504 85.168L331.036 84.5126V82.8376V75.3731H336.763ZM339.316 72.8242H328.446V82.8012C323.486 84.986 319.984 90.0109 319.984 95.9097V133.269H347.741V95.9097C347.741 90.0109 344.24 84.986 339.279 82.8012V72.8242H339.316Z" fill="#7FE7EB"/>
</g>
<path d="M341.066 69.1104H326.695V75.3005H341.066V69.1104Z" fill="#614A3A"/>
<path d="M342.088 131.339H325.747C323.96 131.339 322.501 129.882 322.501 128.098V103.411C322.501 101.626 323.96 100.17 325.747 100.17H342.088C343.875 100.17 345.334 101.626 345.334 103.411V128.062C345.297 129.882 343.875 131.339 342.088 131.339Z" fill="#F0A80E"/>
<path d="M322.465 90.2663C322.465 90.2663 323.705 87.9359 325.675 86.1517C327.243 84.7316 329.687 83.8213 329.687 83.8213" stroke="#EDFCFC" stroke-width="7" stroke-miterlimit="10" stroke-linecap="round"/>
<path d="M346.574 114.662V125.003" stroke="#EDFCFC" stroke-width="7" stroke-miterlimit="10" stroke-linecap="round"/>
<g opacity="0.6">
<path d="M328.3 127.37C326.112 127.37 324.288 125.586 324.288 123.365V104.758C324.288 102.574 326.075 100.753 328.3 100.753C330.489 100.753 332.312 102.537 332.312 104.758V123.365C332.312 125.586 330.489 127.37 328.3 127.37Z" fill="#EDFCFC"/>
</g>
<g opacity="0.68">
<path d="M287.521 131.994V95.9458C287.521 90.7388 290.549 86.0416 295.218 84.0025L295.984 83.6748V74.1348H304.3V83.6748L305.066 84.0025C309.734 86.0416 312.762 90.7388 312.762 95.9458V131.994H287.521Z" fill="#AAF0F2"/>
<path d="M303.023 75.3731V82.8012V84.4762L304.555 85.1316C308.75 86.9522 311.485 91.2125 311.485 95.9097V130.72H288.835V95.9461C288.835 91.2489 291.57 87.0251 295.765 85.168L297.297 84.5126V82.8376V75.3731H303.023ZM305.577 72.8242H294.707V82.8012C289.747 84.986 286.245 90.0109 286.245 95.9097V133.269H314.002V95.9097C314.002 90.0109 310.501 84.986 305.54 82.8012V72.8242H305.577Z" fill="#7FE7EB"/>
</g>
<path d="M307.327 69.1104H292.956V75.3005H307.327V69.1104Z" fill="#614A3A"/>
<path d="M308.312 131.339H291.972C290.185 131.339 288.726 129.882 288.726 128.098V103.411C288.726 101.626 290.185 100.17 291.972 100.17H308.312C310.1 100.17 311.559 101.626 311.559 103.411V128.062C311.559 129.882 310.1 131.339 308.312 131.339Z" fill="#1BB0B5"/>
<path d="M288.726 90.2663C288.726 90.2663 289.966 87.9359 291.935 86.1517C293.504 84.7316 295.948 83.8213 295.948 83.8213" stroke="#EDFCFC" stroke-width="7" stroke-miterlimit="10" stroke-linecap="round"/>
<path d="M312.835 114.662V125.003" stroke="#EDFCFC" stroke-width="7" stroke-miterlimit="10" stroke-linecap="round"/>
<g opacity="0.6">
<path d="M294.525 127.37C292.336 127.37 290.513 125.586 290.513 123.365V104.758C290.513 102.574 292.3 100.753 294.525 100.753C296.713 100.753 298.537 102.537 298.537 104.758V123.365C298.537 125.586 296.75 127.37 294.525 127.37Z" fill="#EDFCFC"/>
</g>
<path d="M274.391 98.9327L254.221 117.212C254.184 117.248 254.148 117.285 254.111 117.321L250.245 122.091C249.917 122.492 249.99 123.074 250.391 123.402L260.166 131.194C260.567 131.522 261.151 131.449 261.479 131.048L265.236 126.351C265.272 126.315 265.309 126.278 265.309 126.206L278.549 102.21C278.841 101.7 279.497 101.554 279.971 101.918L280.3 102.173C280.701 102.501 281.285 102.428 281.613 102.028L283.436 99.7337C283.765 99.3332 283.692 98.7506 283.291 98.4229L277.309 93.6529C276.908 93.3252 276.288 93.398 275.996 93.8349L274.245 96.1653C273.953 96.5659 274.026 97.1485 274.391 97.4762C274.792 97.8403 274.792 98.5321 274.391 98.9327Z" fill="url(#paint0_linear_482_3437)"/>
<path d="M269.066 134.108H235.947L224.057 110.185H281.03L269.066 134.108Z" fill="#64657A"/>
<path d="M252.543 134.108H235.947L224.057 110.185H252.543V134.108Z" fill="#4D4E5E"/>
<path d="M280.482 111.094H224.093C222.999 111.094 222.087 110.184 222.087 109.092C222.087 107.999 222.999 107.089 224.093 107.089H280.482C281.577 107.089 282.488 107.999 282.488 109.092C282.488 110.184 281.577 111.094 280.482 111.094Z" fill="#363742"/>
</g>
<defs>
<linearGradient id="paint0_linear_482_3437" x1="254.059" y1="127.09" x2="284.701" y2="96.3956" gradientUnits="userSpaceOnUse">
<stop stop-color="#363742"/>
<stop offset="0.2736" stop-color="#4B4B5A"/>
<stop offset="1" stop-color="#7E7F96"/>
</linearGradient>
<clipPath id="clip0_482_3437">
<rect width="533" height="285" fill="white" transform="translate(-70)"/>
</clipPath>
</defs>
</svg>
