<svg width="271" height="92" viewBox="0 0 271 92" fill="none" xmlns="http://www.w3.org/2000/svg">
<path d="M13.6 6C19.6267 2.42666 22.8533 0.639998 23.28 0.639998C23.76 0.639998 24.5333 1.06666 25.6 1.92C26.6667 2.72 27.7333 3.86666 28.8 5.36C29.8667 6.8 30.4 8.21333 30.4 9.6V23.04C30.4 24.2667 28.2133 25.8133 23.84 27.68C24.96 28 26.3467 29.2 28 31.28C29.6533 33.3067 30.48 35.1467 30.48 36.8V54.56C30.48 54.9867 27.5467 56.3467 21.68 58.64C15.8667 60.88 12.2933 62 10.96 62C9.68 62 8.18667 60.8533 6.48 58.56C4.82667 56.2667 4 53.52 4 50.32V11.92C4 9.04 2.90667 7.36 0.72 6.88V5.12L8.8 0.559999C9.97333 1.04 11.0667 1.84 12.08 2.96C13.0933 4.02666 13.6 5.04 13.6 6ZM17.68 54.64C18.6933 54.64 19.7333 54.2133 20.8 53.36V40.96C20.8 37.0133 19.44 35.04 16.72 35.04C15.6533 35.04 14.6133 35.44 13.6 36.24V48.72C13.6 52.6667 14.96 54.64 17.68 54.64ZM20.8 14C20.8 12.56 20.48 11.3333 19.84 10.32C19.2533 9.25333 18.3733 8.72 17.2 8.72C16.08 8.72 14.88 9.52 13.6 11.12V27.68C18.4 26.3467 20.8 23.4667 20.8 19.04V14ZM37.6719 53.84V7.92C37.6719 7.54666 40.7119 6.24 46.7919 4C52.8719 1.70667 56.3652 0.559999 57.2719 0.559999C58.1785 0.559999 59.5385 1.65333 61.3519 3.84C63.2185 6.02666 64.1519 8 64.1519 9.76V30.72H68.0719V32.64L64.1519 34.64V50.16C64.1519 53.0933 65.4319 54.8267 67.9919 55.36V57.12L59.2719 62C58.0985 61.52 57.0052 60.7467 55.9919 59.68C54.9785 58.56 54.4719 57.52 54.4719 56.56V34.64H47.2719V49.68C47.2719 51.6533 47.4852 53.0667 47.9119 53.92C48.3385 54.7733 49.2185 55.2 50.5519 55.2V57.68L34.1519 64.56L32.8719 62C34.0452 62 35.1652 61.3067 36.2319 59.92C37.1919 58.5867 37.6719 56.56 37.6719 53.84ZM50.3919 8C49.3252 8 48.2852 8.4 47.2719 9.2V32.8L51.9919 30.72H54.4719V13.92C54.4719 9.97333 53.1119 8 50.3919 8ZM84.845 8.24C83.885 8.24 82.845 8.64 81.725 9.44V35.44C83.1117 35.44 84.6583 35.0133 86.365 34.16C88.0717 33.2533 88.925 32.32 88.925 31.36V14.16C88.925 10.2133 87.565 8.24 84.845 8.24ZM72.125 53.84V12.4C72.125 9.14666 71.0317 7.30666 68.845 6.88V5.12L76.925 0.559999C77.9917 0.986664 79.0583 1.76 80.125 2.88C81.1917 4 81.725 5.01333 81.725 5.92C87.5917 2.34667 90.9517 0.559999 91.805 0.559999C92.6583 0.559999 93.9917 1.65333 95.805 3.84C97.6717 6.02666 98.605 8 98.605 9.76V32.24C98.605 32.6667 95.6983 34.0267 89.885 36.32C92.3383 44.5867 95.2183 50.16 98.525 53.04C100.018 54.2667 101.538 54.88 103.085 54.88V57.28C98.125 60.4267 94.9783 62 93.645 62C91.885 62 89.645 58.6933 86.925 52.08C84.2583 45.4667 82.8183 41.0933 82.605 38.96L81.725 39.2V49.68C81.725 51.6533 81.9383 53.0667 82.365 53.92C82.7917 54.7733 83.6717 55.2 85.005 55.2V57.68L68.605 64.56L67.325 62C68.4983 62 69.6183 61.3067 70.685 59.92C71.645 58.5867 72.125 56.56 72.125 53.84ZM117.696 8.16C117.163 8.16 116.683 8.42666 116.256 8.96V42C116.256 44.24 116.39 46.0533 116.656 47.44C116.923 48.7733 117.51 50.1067 118.416 51.44C120.176 54 124.203 55.28 130.496 55.28V57.6C130.23 57.6 128.256 58.3467 124.576 59.84C120.896 61.28 118.656 62 117.856 62C115.19 62 112.656 60.48 110.256 57.44C107.856 54.3467 106.656 51.0933 106.656 47.68V7.76C106.656 7.38666 109.696 6.08 115.776 3.84C121.91 1.54666 125.43 0.399997 126.336 0.399997C126.656 0.399997 127.03 1.17333 127.456 2.72C127.883 4.26666 128.363 6.13333 128.896 8.32C129.483 10.5067 130.07 12.1333 130.656 13.2C131.296 14.2133 132.47 14.72 134.176 14.72V16.32C133.003 16.8533 131.003 17.8133 128.176 19.2C125.403 20.5333 123.91 21.2 123.696 21.2C122.896 21.2 121.883 19.04 120.656 14.72C119.43 10.3467 118.443 8.16 117.696 8.16ZM139 51.76V15.2C139 13.2267 138.787 11.8133 138.36 10.96C137.933 10.1067 137.053 9.68 135.72 9.68V7.2L152.12 0.319998L153.4 2.88C152.227 2.88 151.107 3.57333 150.04 4.96C149.08 6.29333 148.6 8.32 148.6 11.04V48.64C148.6 50.08 148.84 51.12 149.32 51.76C149.8 52.3467 150.627 52.64 151.8 52.64V54.88C140.973 59.6267 135.533 62 135.48 62L134.2 59.44C134.627 59.44 135.133 59.2533 135.72 58.88C136.36 58.5067 136.893 58.08 137.32 57.6C138.44 56.32 139 54.3733 139 51.76ZM156.578 53.84V13.44C156.578 11.68 156.205 10.16 155.458 8.88C154.711 7.6 153.778 6.96 152.658 6.96V5.2C153.031 5.14666 155.938 3.52 161.378 0.319998C161.751 0.426663 162.205 0.586663 162.738 0.799996C163.271 0.959997 163.965 1.46666 164.818 2.32C165.725 3.17333 166.178 4.16 166.178 5.28C166.498 5.12 167.405 4.61333 168.898 3.76C172.845 1.52 175.271 0.399997 176.178 0.399997C177.138 0.399997 178.178 0.879997 179.298 1.84C180.471 2.8 181.351 3.94666 181.938 5.28C182.045 5.22666 183.138 4.66666 185.218 3.6C189.378 1.46666 191.885 0.399997 192.738 0.399997C194.445 0.399997 196.045 1.52 197.538 3.76C199.031 6 199.778 8.05333 199.778 9.92V50.16C199.778 53.0933 201.085 54.8267 203.698 55.36V57.12L194.978 62C193.805 61.52 192.711 60.7467 191.698 59.68C190.685 58.56 190.178 57.52 190.178 56.56V17.36C190.178 14.16 189.645 11.9467 188.578 10.72C187.565 9.44 185.698 8.74666 182.978 8.64V50.16C182.978 53.0933 184.285 54.8267 186.898 55.36V57.12L178.178 62C177.005 61.52 175.911 60.7467 174.898 59.68C173.885 58.56 173.378 57.52 173.378 56.56V17.36C173.378 14 172.871 11.7067 171.858 10.48C170.898 9.25333 169.005 8.64 166.178 8.64V49.68C166.178 51.6533 166.391 53.0667 166.818 53.92C167.245 54.7733 168.125 55.2 169.458 55.2V57.68L153.058 64.56L151.778 62C152.951 62 154.071 61.3067 155.138 59.92C156.098 58.5867 156.578 56.56 156.578 53.84ZM218.79 8.16C218.257 8.16 217.777 8.42666 217.35 8.96V30.08H228.63V32L224.63 34H217.35V42C217.35 47.92 217.937 51.3867 219.11 52.4C220.87 53.8933 222.79 54.7467 224.87 54.96C226.95 55.1733 229.19 55.28 231.59 55.28V57.6C231.323 57.6 229.35 58.3467 225.67 59.84C221.99 61.28 219.75 62 218.95 62C217.297 62 215.003 60.72 212.07 58.16C209.19 55.6 207.75 52.8267 207.75 49.84V7.76C207.75 7.38666 210.79 6.08 216.87 3.84C223.003 1.54666 226.523 0.399997 227.43 0.399997C227.75 0.399997 228.123 1.17333 228.55 2.72C228.977 4.26666 229.457 6.13333 229.99 8.32C230.577 10.5067 231.163 12.1333 231.75 13.2C232.39 14.2133 233.563 14.72 235.27 14.72V16.32C234.097 16.8533 232.097 17.8133 229.27 19.2C226.497 20.5333 225.003 21.2 224.79 21.2C223.99 21.2 222.977 19.04 221.75 14.72C220.523 10.3467 219.537 8.16 218.79 8.16ZM266.574 9.6V54.56C266.574 54.9867 263.64 56.3467 257.774 58.64C251.96 60.88 248.387 62 247.054 62C245.774 62 244.28 60.8533 242.574 58.56C240.92 56.2667 240.094 53.52 240.094 50.32V11.92C240.094 9.04 239 7.36 236.814 6.88V5.12L244.894 0.559999C246.067 1.04 247.16 1.84 248.174 2.96C249.187 4.02666 249.694 5.04 249.694 6L259.614 0.399997C260.574 0.399997 261.96 1.49333 263.774 3.68C265.64 5.86666 266.574 7.84 266.574 9.6ZM253.774 54.64C254.787 54.64 255.827 54.2133 256.894 53.36V15.6C256.894 11.8133 255.534 9.92 252.814 9.92C251.747 9.92 250.707 10.32 249.694 11.12V48.72C249.694 52.6667 251.054 54.64 253.774 54.64Z" fill="white"/>
<path d="M3.13281 81.3906H3.84375C4.72917 81.3906 5.35417 81.2708 5.71875 81.0312C6.08854 80.7865 6.27344 80.3776 6.27344 79.8047C6.27344 79.1797 6.10417 78.7422 5.76562 78.4922C5.42708 78.237 4.78646 78.1094 3.84375 78.1094H3.13281V81.3906ZM3.13281 86.4453H3.77344C4.42448 86.4453 4.91146 86.4193 5.23438 86.3672C5.55729 86.3151 5.8125 86.224 6 86.0938C6.22917 85.9427 6.40625 85.7396 6.53125 85.4844C6.65625 85.2292 6.71875 84.9479 6.71875 84.6406C6.71875 84.276 6.64323 83.9583 6.49219 83.6875C6.34115 83.4167 6.125 83.2057 5.84375 83.0547C5.66667 82.9661 5.46354 82.901 5.23438 82.8594C5.01042 82.8177 4.71094 82.7969 4.33594 82.7969H3.77344H3.13281V86.4453ZM1.3125 88V76.5625H4.19531C5.01823 76.5625 5.625 76.6068 6.01562 76.6953C6.41146 76.7839 6.7474 76.9297 7.02344 77.1328C7.3776 77.3932 7.65104 77.7344 7.84375 78.1562C8.04167 78.5781 8.14062 79.0443 8.14062 79.5547C8.14062 80.1641 8 80.6745 7.71875 81.0859C7.4375 81.4922 7.02865 81.776 6.49219 81.9375C7.15885 82.0417 7.68229 82.3464 8.0625 82.8516C8.44792 83.3516 8.64062 83.9844 8.64062 84.75C8.64062 85.2135 8.5599 85.6536 8.39844 86.0703C8.23698 86.487 8.00781 86.8411 7.71094 87.1328C7.39844 87.4505 7.01042 87.6745 6.54688 87.8047C6.08333 87.9349 5.30469 88 4.21094 88H1.3125ZM12.9453 83.5078H16.1328L14.9609 80.8984C14.8932 80.7318 14.8229 80.5417 14.75 80.3281C14.6771 80.1094 14.6042 79.8672 14.5312 79.6016C14.4688 79.8516 14.401 80.0859 14.3281 80.3047C14.2604 80.5182 14.1901 80.7161 14.1172 80.8984L12.9453 83.5078ZM18.0859 88L16.7891 85.0547H12.2578L10.9297 88H8.97656L14.5156 76.1094L20.0469 88H18.0859ZM22.9844 81.4375H23.3203C24.3047 81.4375 24.9583 81.3229 25.2812 81.0938C25.6042 80.8646 25.7656 80.4583 25.7656 79.875C25.7656 79.2448 25.5911 78.8021 25.2422 78.5469C24.8984 78.2865 24.2578 78.1562 23.3203 78.1562H22.9844V81.4375ZM22.8672 82.8828V88H21.125V76.5625H23.7188C24.4792 76.5625 25.0677 76.612 25.4844 76.7109C25.9062 76.8099 26.2656 76.974 26.5625 77.2031C26.9167 77.4792 27.1901 77.8359 27.3828 78.2734C27.5755 78.7109 27.6719 79.1901 27.6719 79.7109C27.6719 80.6276 27.4505 81.3464 27.0078 81.8672C26.5651 82.3828 25.9115 82.6927 25.0469 82.7969L28.9844 88H26.8828L23.0781 82.8828H22.8672ZM39.2734 79.3438C38.7474 78.8958 38.1901 78.5599 37.6016 78.3359C37.0182 78.112 36.4036 78 35.7578 78C34.5078 78 33.4896 78.401 32.7031 79.2031C31.9219 80.0052 31.5312 81.0443 31.5312 82.3203C31.5312 83.5547 31.9115 84.5729 32.6719 85.375C33.4375 86.1771 34.401 86.5781 35.5625 86.5781C36.2396 86.5781 36.8828 86.4583 37.4922 86.2188C38.1068 85.9792 38.6953 85.6172 39.2578 85.1328V87.2344C38.7578 87.5938 38.2135 87.862 37.625 88.0391C37.0365 88.2161 36.3984 88.3047 35.7109 88.3047C34.8359 88.3047 34.026 88.1615 33.2812 87.875C32.5417 87.5885 31.8906 87.1667 31.3281 86.6094C30.7708 86.0625 30.3411 85.4193 30.0391 84.6797C29.7422 83.9349 29.5938 83.1432 29.5938 82.3047C29.5938 81.4661 29.7422 80.6797 30.0391 79.9453C30.3411 79.2057 30.776 78.5573 31.3438 78C31.9115 77.4375 32.5625 77.013 33.2969 76.7266C34.0312 76.4349 34.8255 76.2891 35.6797 76.2891C36.3516 76.2891 36.9922 76.388 37.6016 76.5859C38.2109 76.7786 38.8021 77.0729 39.375 77.4688L39.2734 79.3438ZM41.5781 88V76.5625H47.9609V78.1406H43.4375V81.0078H47.9609V82.6406H43.4375V86.3359H47.9609V88H41.5781ZM50.0938 88V76.5625H51.9531V86.3359H56.1094V88H50.0938ZM66.8359 82.3047C66.8359 81.7266 66.7292 81.1771 66.5156 80.6562C66.3073 80.1354 66.0052 79.6719 65.6094 79.2656C65.224 78.8646 64.776 78.5573 64.2656 78.3438C63.7604 78.125 63.2266 78.0156 62.6641 78.0156C62.1016 78.0156 61.5651 78.1224 61.0547 78.3359C60.5495 78.5495 60.099 78.8594 59.7031 79.2656C59.3073 79.6667 59.0052 80.1276 58.7969 80.6484C58.5885 81.1693 58.4844 81.7214 58.4844 82.3047C58.4844 82.8828 58.5885 83.4297 58.7969 83.9453C59.0052 84.4609 59.3073 84.9219 59.7031 85.3281C60.099 85.7344 60.5495 86.0443 61.0547 86.2578C61.5599 86.4714 62.0964 86.5781 62.6641 86.5781C63.2214 86.5781 63.75 86.4714 64.25 86.2578C64.7552 86.0443 65.2083 85.7344 65.6094 85.3281C66.0052 84.9219 66.3073 84.4609 66.5156 83.9453C66.7292 83.4245 66.8359 82.8776 66.8359 82.3047ZM68.7734 82.3047C68.7734 83.1172 68.6198 83.8854 68.3125 84.6094C68.0104 85.3333 67.5677 85.9792 66.9844 86.5469C66.3958 87.1146 65.7318 87.5495 64.9922 87.8516C64.2526 88.1536 63.4766 88.3047 62.6641 88.3047C61.8411 88.3047 61.0547 88.1536 60.3047 87.8516C59.5599 87.5443 58.901 87.1094 58.3281 86.5469C57.7448 85.9792 57.3021 85.3359 57 84.6172C56.6979 83.8984 56.5469 83.1276 56.5469 82.3047C56.5469 81.487 56.6979 80.7161 57 79.9922C57.3021 79.2682 57.7448 78.6198 58.3281 78.0469C58.9115 77.4792 59.5729 77.0469 60.3125 76.75C61.0521 76.4531 61.8359 76.3047 62.6641 76.3047C63.487 76.3047 64.2656 76.4531 65 76.75C65.7396 77.0469 66.401 77.4792 66.9844 78.0469C67.5677 78.625 68.0104 79.2786 68.3125 80.0078C68.6198 80.7318 68.7734 81.4974 68.7734 82.3047ZM70.9062 88V76.1094L78.1719 83.1016C78.3698 83.2995 78.5703 83.5104 78.7734 83.7344C78.9766 83.9583 79.1901 84.2109 79.4141 84.4922V76.5625H81.1328V88.4453L73.7188 81.3281C73.5208 81.1354 73.3281 80.9323 73.1406 80.7188C72.9583 80.5052 72.7839 80.2812 72.6172 80.0469V88H70.9062ZM86.1797 83.5078H89.3672L88.1953 80.8984C88.1276 80.7318 88.0573 80.5417 87.9844 80.3281C87.9115 80.1094 87.8385 79.8672 87.7656 79.6016C87.7031 79.8516 87.6354 80.0859 87.5625 80.3047C87.4948 80.5182 87.4245 80.7161 87.3516 80.8984L86.1797 83.5078ZM91.3203 88L90.0234 85.0547H85.4922L84.1641 88H82.2109L87.75 76.1094L93.2812 88H91.3203ZM99.2188 88V76.5625H101.078V88H99.2188ZM113.078 82.3516C113.057 82.263 113.023 82.0182 112.977 81.6172C112.935 81.2839 112.898 81.0078 112.867 80.7891C112.82 81.0495 112.753 81.3099 112.664 81.5703C112.581 81.8307 112.474 82.0964 112.344 82.3672L109.352 88.4609L106.359 82.2422C106.234 81.987 106.125 81.7396 106.031 81.5C105.943 81.2604 105.865 81.0234 105.797 80.7891C105.792 81.0286 105.771 81.2812 105.734 81.5469C105.703 81.8073 105.654 82.0807 105.586 82.3672L104.359 88H102.648L105.352 76.0781L108.727 83.2969C108.779 83.4115 108.857 83.6016 108.961 83.8672C109.07 84.1328 109.201 84.4609 109.352 84.8516C109.461 84.5234 109.633 84.1068 109.867 83.6016C109.93 83.4661 109.977 83.362 110.008 83.2891L113.305 76.0781L116.07 88H114.344L113.078 82.3516ZM126.891 82.3516C126.87 82.263 126.836 82.0182 126.789 81.6172C126.747 81.2839 126.711 81.0078 126.68 80.7891C126.633 81.0495 126.565 81.3099 126.477 81.5703C126.393 81.8307 126.286 82.0964 126.156 82.3672L123.164 88.4609L120.172 82.2422C120.047 81.987 119.938 81.7396 119.844 81.5C119.755 81.2604 119.677 81.0234 119.609 80.7891C119.604 81.0286 119.583 81.2812 119.547 81.5469C119.516 81.8073 119.466 82.0807 119.398 82.3672L118.172 88H116.461L119.164 76.0781L122.539 83.2969C122.591 83.4115 122.669 83.6016 122.773 83.8672C122.883 84.1328 123.013 84.4609 123.164 84.8516C123.273 84.5234 123.445 84.1068 123.68 83.6016C123.742 83.4661 123.789 83.362 123.82 83.2891L127.117 76.0781L129.883 88H128.156L126.891 82.3516ZM131.375 88V76.5625H137.758V78.1406H133.234V81.0078H137.758V82.6406H133.234V86.3359H137.758V88H131.375ZM141.75 81.4375H142.086C143.07 81.4375 143.724 81.3229 144.047 81.0938C144.37 80.8646 144.531 80.4583 144.531 79.875C144.531 79.2448 144.357 78.8021 144.008 78.5469C143.664 78.2865 143.023 78.1562 142.086 78.1562H141.75V81.4375ZM141.633 82.8828V88H139.891V76.5625H142.484C143.245 76.5625 143.833 76.612 144.25 76.7109C144.672 76.8099 145.031 76.974 145.328 77.2031C145.682 77.4792 145.956 77.8359 146.148 78.2734C146.341 78.7109 146.438 79.1901 146.438 79.7109C146.438 80.6276 146.216 81.3464 145.773 81.8672C145.331 82.3828 144.677 82.6927 143.812 82.7969L147.75 88H145.648L141.844 82.8828H141.633ZM148.203 85.7109L149.688 85.0234C149.828 85.5339 150.086 85.9245 150.461 86.1953C150.836 86.4609 151.315 86.5938 151.898 86.5938C152.451 86.5938 152.888 86.4401 153.211 86.1328C153.539 85.8255 153.703 85.4141 153.703 84.8984C153.703 84.2266 153.146 83.6276 152.031 83.1016C151.875 83.0234 151.755 82.9661 151.672 82.9297C150.411 82.3151 149.57 81.7604 149.148 81.2656C148.732 80.7656 148.523 80.1562 148.523 79.4375C148.523 78.5052 148.839 77.75 149.469 77.1719C150.104 76.5938 150.935 76.3047 151.961 76.3047C152.805 76.3047 153.51 76.4688 154.078 76.7969C154.646 77.1198 155.039 77.5859 155.258 78.1953L153.805 78.9453C153.576 78.5859 153.323 78.3229 153.047 78.1562C152.776 77.9896 152.464 77.9062 152.109 77.9062C151.609 77.9062 151.211 78.0365 150.914 78.2969C150.622 78.5573 150.477 78.9062 150.477 79.3438C150.477 80.0312 151.122 80.6719 152.414 81.2656C152.513 81.3125 152.591 81.349 152.648 81.375C153.779 81.8958 154.555 82.4062 154.977 82.9062C155.398 83.401 155.609 84.0208 155.609 84.7656C155.609 85.849 155.268 86.7109 154.586 87.3516C153.904 87.987 152.982 88.3047 151.82 88.3047C150.846 88.3047 150.047 88.0807 149.422 87.6328C148.802 87.1849 148.396 86.5443 148.203 85.7109ZM157.672 88V76.5625H159.531V88H157.672ZM165.836 88.4453L160.734 76.5625H162.664L165.227 82.6562C165.378 83.0104 165.503 83.3385 165.602 83.6406C165.701 83.9375 165.779 84.2214 165.836 84.4922C165.904 84.2057 165.99 83.9089 166.094 83.6016C166.198 83.2943 166.32 82.9792 166.461 82.6562L169.016 76.5625H170.938L165.836 88.4453ZM174.227 83.5078H177.414L176.242 80.8984C176.174 80.7318 176.104 80.5417 176.031 80.3281C175.958 80.1094 175.885 79.8672 175.812 79.6016C175.75 79.8516 175.682 80.0859 175.609 80.3047C175.542 80.5182 175.471 80.7161 175.398 80.8984L174.227 83.5078ZM179.367 88L178.07 85.0547H173.539L172.211 88H170.258L175.797 76.1094L181.328 88H179.367ZM196.562 82.3516C196.542 82.263 196.508 82.0182 196.461 81.6172C196.419 81.2839 196.383 81.0078 196.352 80.7891C196.305 81.0495 196.237 81.3099 196.148 81.5703C196.065 81.8307 195.958 82.0964 195.828 82.3672L192.836 88.4609L189.844 82.2422C189.719 81.987 189.609 81.7396 189.516 81.5C189.427 81.2604 189.349 81.0234 189.281 80.7891C189.276 81.0286 189.255 81.2812 189.219 81.5469C189.188 81.8073 189.138 82.0807 189.07 82.3672L187.844 88H186.133L188.836 76.0781L192.211 83.2969C192.263 83.4115 192.341 83.6016 192.445 83.8672C192.555 84.1328 192.685 84.4609 192.836 84.8516C192.945 84.5234 193.117 84.1068 193.352 83.6016C193.414 83.4661 193.461 83.362 193.492 83.2891L196.789 76.0781L199.555 88H197.828L196.562 82.3516ZM201.047 88V76.5625H207.43V78.1406H202.906V81.0078H207.43V82.6406H202.906V86.3359H207.43V88H201.047ZM211.422 86.3203H212.984C213.844 86.3203 214.487 86.263 214.914 86.1484C215.346 86.0339 215.721 85.8411 216.039 85.5703C216.471 85.2005 216.794 84.7422 217.008 84.1953C217.227 83.6432 217.336 83.0026 217.336 82.2734C217.336 81.5443 217.227 80.9062 217.008 80.3594C216.794 79.8073 216.471 79.3464 216.039 78.9766C215.716 78.7057 215.328 78.513 214.875 78.3984C214.427 78.2839 213.724 78.2266 212.766 78.2266H212.094H211.422V86.3203ZM209.562 88V76.5625H212.07C213.701 76.5625 214.846 76.6458 215.508 76.8125C216.174 76.974 216.758 77.2474 217.258 77.6328C217.919 78.138 218.419 78.7865 218.758 79.5781C219.102 80.3698 219.273 81.2734 219.273 82.2891C219.273 83.3047 219.102 84.2057 218.758 84.9922C218.419 85.7734 217.919 86.4193 217.258 86.9297C216.758 87.3151 216.188 87.5911 215.547 87.7578C214.911 87.9193 213.919 88 212.57 88H212.07H209.562ZM221.438 88V76.5625H223.297V88H221.438ZM225.969 88V76.5625H232.352V78.1406H227.828V81.0078H232.352V82.6406H227.828V86.3359H232.352V88H225.969ZM238.117 88.4453L233.016 76.5625H234.945L237.508 82.6562C237.659 83.0104 237.784 83.3385 237.883 83.6406C237.982 83.9375 238.06 84.2214 238.117 84.4922C238.185 84.2057 238.271 83.9089 238.375 83.6016C238.479 83.2943 238.602 82.9792 238.742 82.6562L241.297 76.5625H243.219L238.117 88.4453ZM246.508 83.5078H249.695L248.523 80.8984C248.456 80.7318 248.385 80.5417 248.312 80.3281C248.24 80.1094 248.167 79.8672 248.094 79.6016C248.031 79.8516 247.964 80.0859 247.891 80.3047C247.823 80.5182 247.753 80.7161 247.68 80.8984L246.508 83.5078ZM251.648 88L250.352 85.0547H245.82L244.492 88H242.539L248.078 76.1094L253.609 88H251.648ZM254.688 88V76.5625H256.547V86.3359H260.703V88H254.688Z" fill="white"/>
</svg>
