<svg width="2380" height="3253" viewBox="0 0 2380 3253" fill="none" xmlns="http://www.w3.org/2000/svg">
<rect x="75" y="75" width="2230" height="3103" fill="#1BAFB5"/>
<rect x="75" y="75" width="2230" height="3103" stroke="#F7F4F2" stroke-width="150" stroke-linejoin="bevel"/>
<path d="M907.977 2750.09C907.586 2748.43 906.951 2743.84 906.072 2736.32C905.291 2730.07 904.607 2724.9 904.021 2720.79C903.143 2725.68 901.873 2730.56 900.213 2735.44C898.65 2740.33 896.648 2745.31 894.207 2750.38L838.104 2864.64L782 2748.04C779.656 2743.26 777.605 2738.62 775.848 2734.12C774.188 2729.63 772.723 2725.19 771.453 2720.79C771.355 2725.29 770.965 2730.02 770.281 2735C769.695 2739.89 768.768 2745.01 767.498 2750.38L744.5 2856H712.42L763.104 2632.46L826.385 2767.82C827.361 2769.96 828.826 2773.53 830.779 2778.51C832.83 2783.49 835.271 2789.64 838.104 2796.97C840.154 2790.81 843.377 2783 847.771 2773.53C848.943 2770.99 849.822 2769.04 850.408 2767.67L912.225 2632.46L964.08 2856H931.707L907.977 2750.09ZM992.059 2856V2641.55H1111.74V2671.14H1026.92V2724.9H1111.74V2755.51H1026.92V2824.8H1111.74V2856H992.059ZM1221.01 2671.14V2856H1186.15V2671.14H1129.17V2641.55H1277.7V2671.14H1221.01ZM1423.16 2746.14H1508.12C1508.12 2747.6 1508.17 2749.65 1508.27 2752.29C1508.56 2759.22 1508.71 2763.91 1508.71 2766.35C1508.71 2796.53 1500.07 2819.96 1482.78 2836.66C1465.5 2853.36 1441.13 2861.71 1409.69 2861.71C1392.11 2861.71 1376.43 2859.12 1362.66 2853.95C1348.89 2848.77 1336.83 2840.96 1326.48 2830.51C1316.33 2820.16 1308.51 2808 1303.04 2794.04C1297.67 2780.07 1294.99 2765.13 1294.99 2749.21C1294.99 2733 1297.72 2718.06 1303.19 2704.39C1308.76 2690.72 1316.96 2678.66 1327.8 2668.21C1338.25 2657.95 1350.51 2650.14 1364.57 2644.77C1378.63 2639.4 1393.67 2636.71 1409.69 2636.71C1426.58 2636.71 1441.67 2639.79 1454.95 2645.94C1468.33 2652.09 1480.24 2661.52 1490.69 2674.21L1465.2 2693.4C1457.98 2685 1449.82 2678.75 1440.74 2674.65C1431.66 2670.55 1421.5 2668.5 1410.27 2668.5C1387.03 2668.5 1368.04 2675.97 1353.29 2690.91C1338.64 2705.76 1331.32 2725.09 1331.32 2748.92C1331.32 2773.14 1338.64 2792.82 1353.29 2807.95C1368.04 2822.99 1387.13 2830.51 1410.56 2830.51C1430.49 2830.51 1446.16 2825.87 1457.59 2816.6C1469.01 2807.32 1474.72 2794.67 1474.72 2778.66V2775.58H1423.16V2746.14ZM1545.48 2856V2641.55H1665.15V2671.14H1580.34V2724.9H1665.15V2755.51H1580.34V2824.8H1665.15V2856H1545.48Z" fill="white"/>
<path d="M628.383 1306.51C683.483 1306.23 719.629 1338.26 755.634 1374.09C781.711 1400.3 809.826 1426.32 841.252 1445.11C912.069 1487.03 980.503 1462.37 1036.44 1415.04C1040.11 1411.88 1041.86 1402.17 1039.85 1398.16C1029.64 1379.01 1020.67 1356.98 1005.58 1342.6C916.741 1259.16 812.069 1230.08 693.598 1262.31C669.619 1268.92 648.301 1286.04 626.014 1298.43C626.803 1301.12 627.593 1303.81 628.383 1306.51Z" fill="#ADC764"/>
<path d="M1335.74 992.963C1292.08 982.361 1255.15 989.009 1220.34 1007.16C1141.93 1047.7 1086.86 1109.39 1062.43 1194.29C1056.02 1216.65 1058.78 1241.75 1057.79 1265.44C1057.48 1277.23 1063.64 1282.53 1076.54 1283.77C1165.16 1293.72 1229.35 1253.17 1255.33 1167.82C1261.09 1149 1265.25 1128.97 1268.65 1109.17C1276.77 1064.16 1290.87 1022.42 1335.74 992.963Z" fill="#ADC764"/>
<path d="M660.663 1038.77C702.815 1038.53 729.005 1065.12 755.42 1092.48C769.736 1107.09 785.207 1121.36 802.311 1132.65C847.807 1162.35 907.328 1155.77 945.915 1117.71C949.473 1114.16 951.836 1105.1 949.44 1101.21C941.96 1087.1 934.911 1071.62 923.602 1061.56C861.672 1005.75 789.952 984.986 708.934 1006.65C691.499 1011.34 676.094 1022.97 659.787 1031.51C660.079 1033.93 660.371 1036.35 660.663 1038.77Z" fill="#ADC764"/>
<path d="M664.777 729.149C667.604 731.664 670.159 734.676 673.146 736.307C766.987 776.913 828.605 851.623 879.71 936.102C949.824 1052.62 992.739 1180.45 1028.45 1310.82C1046.59 1376.96 1062.15 1444.28 1078.75 1510.88C1079.65 1513.96 1080.55 1517.03 1081.91 1521.65C1092.69 1518.49 1102.7 1515.56 1114.24 1512.17C1108.74 1489.13 1103.62 1465.97 1097.62 1442.66C1056.75 1283.3 1007.14 1126.92 927.025 981.99C881.17 899.733 826.819 824.146 749.405 768.277C729.361 754.094 707.3 743.01 685.398 731.044C679.424 727.78 672.476 726.892 666.071 725.009C665.639 726.389 665.208 727.769 664.777 729.149Z" fill="#ADC764"/>
<path d="M1086.96 767.517C1056.33 761.451 1032.29 766.412 1009.34 779.407C959.56 807.795 924.683 848.528 912.564 905.574C904.354 946.011 914.781 955.909 955.466 950.667C989.381 946.574 1014.39 929.212 1028.34 898.375C1036.21 881.023 1040.98 861.653 1044.71 843.008C1050.58 814.541 1059.43 787.706 1086.96 767.517Z" fill="#ADC764"/>
<path d="M583.81 839.396C604.067 844.322 623.486 847.822 641.818 853.313C655.125 857.352 667.138 865.531 680.445 869.57C715.84 880.506 744.034 869.732 767.423 841.143C779.662 825.853 775.686 816.571 761.297 807.417C724.827 784.259 685.483 784.093 645.607 794.949C618.548 802.464 595.332 815.958 583.81 839.396Z" fill="#ADC764"/>
<path d="M812.584 627.306C802.848 629.743 789.627 630.276 779.525 635.745C750.535 650.932 729.867 674.543 721.71 706.607C719.076 716.155 718.087 732.744 723.29 736.233C730.213 741.308 744.86 739.938 754.982 737.389C780.229 730.822 789.348 710.596 795.029 687.199C799.416 667.943 806.339 648.779 812.584 627.306Z" fill="#ADC764"/>
<path d="M1676.99 1176.47L1202.28 1608.07C1201.42 1608.93 1200.56 1609.79 1199.71 1610.65L1108.71 1723.28C1100.99 1732.74 1102.7 1746.49 1112.15 1754.23L1342.21 1938.22C1351.65 1945.96 1365.38 1944.24 1373.11 1934.78L1461.53 1823.87C1462.38 1823.01 1463.24 1822.15 1463.24 1820.43L1774.85 1253.85C1781.72 1241.81 1797.17 1238.38 1808.33 1246.97L1816.06 1252.99C1825.5 1260.73 1839.23 1259.01 1846.96 1249.55L1889.88 1195.39C1897.61 1185.93 1895.89 1172.17 1886.45 1164.44L1745.67 1051.81C1736.22 1044.07 1721.63 1045.79 1714.76 1056.11L1673.56 1111.13C1666.69 1120.59 1668.41 1134.35 1676.99 1142.08C1686.43 1150.68 1686.43 1167.02 1676.99 1176.47Z" fill="url(#paint0_linear_520_4646)"/>
<path d="M1551.64 2007H772.191L492.344 1442.14H1833.21L1551.64 2007Z" fill="#64657A"/>
<path d="M1162.77 2007H772.191L492.344 1442.14H1162.77V2007Z" fill="#4D4E5E"/>
<path d="M1820.34 1463.62H493.213C467.461 1463.62 446 1442.13 446 1416.34C446 1390.54 467.461 1369.05 493.213 1369.05H1820.34C1846.09 1369.05 1867.55 1390.54 1867.55 1416.34C1867.55 1442.13 1846.09 1463.62 1820.34 1463.62Z" fill="#363742"/>
<defs>
<linearGradient id="paint0_linear_520_4646" x1="1198.48" y1="1841.31" x2="1922" y2="1118.92" gradientUnits="userSpaceOnUse">
<stop stop-color="#363742"/>
<stop offset="0.2736" stop-color="#4B4B5A"/>
<stop offset="1" stop-color="#7E7F96"/>
</linearGradient>
</defs>
</svg>
