<svg width="2380" height="3253" viewBox="0 0 2380 3253" fill="none" xmlns="http://www.w3.org/2000/svg">
<g clip-path="url(#clip0_419_1106)">
<rect x="150" y="150" width="2080" height="2953" fill="#1BAFB5"/>
<path d="M551.283 2551V2336.55H586.146V2519.8H664.076V2551H551.283ZM737.758 2466.77H797.523L775.551 2417.85C774.281 2414.72 772.963 2411.16 771.596 2407.15C770.229 2403.05 768.861 2398.51 767.494 2393.53C766.322 2398.22 765.053 2402.61 763.686 2406.71C762.416 2410.72 761.098 2414.43 759.73 2417.85L737.758 2466.77ZM834.145 2551L809.828 2495.78H724.867L699.965 2551H663.344L767.201 2328.05L870.912 2551H834.145ZM1016.52 2426.2H1025.45C1044.79 2426.2 1057.68 2424.1 1064.12 2419.9C1070.57 2415.7 1073.79 2408.28 1073.79 2397.63C1073.79 2386.21 1070.33 2378.15 1063.39 2373.46C1056.56 2368.77 1043.91 2366.43 1025.45 2366.43H1016.52V2426.2ZM1014.32 2454.76V2551H981.654V2336.55H1034.39C1050.01 2336.55 1061.49 2337.43 1068.81 2339.18C1076.23 2340.84 1082.68 2343.63 1088.15 2347.53C1094.89 2352.51 1100.16 2359.25 1103.97 2367.75C1107.78 2376.15 1109.68 2385.42 1109.68 2395.58C1109.68 2405.74 1107.78 2415.11 1103.97 2423.71C1100.16 2432.3 1094.89 2439.04 1088.15 2443.92C1082.68 2447.83 1076.23 2450.61 1068.81 2452.27C1061.49 2453.93 1050.01 2454.76 1034.39 2454.76H1027.5H1014.32ZM1141.32 2551V2336.55H1261V2366.14H1176.19V2419.9H1261V2450.51H1176.19V2519.8H1261V2551H1141.32ZM1288.69 2508.08L1316.52 2495.19C1319.15 2504.76 1323.99 2512.08 1331.02 2517.16C1338.05 2522.14 1347.04 2524.63 1357.97 2524.63C1368.32 2524.63 1376.53 2521.75 1382.58 2515.99C1388.73 2510.23 1391.81 2502.51 1391.81 2492.85C1391.81 2480.25 1381.36 2469.02 1360.46 2459.15C1357.53 2457.69 1355.29 2456.62 1353.72 2455.93C1330.09 2444.41 1314.32 2434.01 1306.41 2424.73C1298.6 2415.36 1294.69 2403.93 1294.69 2390.45C1294.69 2372.97 1300.6 2358.81 1312.42 2347.97C1324.33 2337.13 1339.91 2331.71 1359.14 2331.71C1374.96 2331.71 1388.2 2334.79 1398.84 2340.94C1409.49 2347 1416.86 2355.74 1420.96 2367.16L1393.71 2381.22C1389.42 2374.49 1384.68 2369.55 1379.51 2366.43C1374.43 2363.3 1368.57 2361.74 1361.93 2361.74C1352.55 2361.74 1345.08 2364.18 1339.52 2369.07C1334.05 2373.95 1331.31 2380.49 1331.31 2388.7C1331.31 2401.59 1343.42 2413.6 1367.64 2424.73C1369.5 2425.61 1370.96 2426.29 1372.04 2426.78C1393.23 2436.55 1407.78 2446.12 1415.69 2455.49C1423.6 2464.77 1427.55 2476.39 1427.55 2490.36C1427.55 2510.67 1421.16 2526.83 1408.36 2538.84C1395.57 2550.76 1378.29 2556.71 1356.51 2556.71C1338.25 2556.71 1323.26 2552.51 1311.54 2544.12C1299.92 2535.72 1292.3 2523.71 1288.69 2508.08ZM1534.93 2366.14V2551H1500.06V2366.14H1443.08V2336.55H1591.62V2366.14H1534.93ZM1641.57 2466.77H1701.33L1679.36 2417.85C1678.09 2414.72 1676.77 2411.16 1675.4 2407.15C1674.04 2403.05 1672.67 2398.51 1671.3 2393.53C1670.13 2398.22 1668.86 2402.61 1667.49 2406.71C1666.22 2410.72 1664.91 2414.43 1663.54 2417.85L1641.57 2466.77ZM1737.95 2551L1713.64 2495.78H1628.68L1603.77 2551H1567.15L1671.01 2328.05L1774.72 2551H1737.95ZM668.764 2911V2688.05L804.994 2819.15C808.705 2822.87 812.465 2826.82 816.273 2831.02C820.082 2835.22 824.086 2839.96 828.285 2845.23V2696.55H860.512V2919.35L721.498 2785.9C717.787 2782.29 714.174 2778.48 710.658 2774.48C707.24 2770.47 703.969 2766.27 700.844 2761.88V2911H668.764ZM909.877 2911V2696.55H1029.55V2726.14H944.74V2779.9H1029.55V2810.51H944.74V2879.8H1029.55V2911H909.877ZM1188.34 2801.14H1273.3C1273.3 2802.6 1273.35 2804.65 1273.45 2807.29C1273.74 2814.22 1273.89 2818.91 1273.89 2821.35C1273.89 2851.53 1265.25 2874.96 1247.96 2891.66C1230.68 2908.36 1206.31 2916.71 1174.87 2916.71C1157.29 2916.71 1141.62 2914.12 1127.85 2908.95C1114.08 2903.77 1102.02 2895.96 1091.66 2885.51C1081.51 2875.16 1073.7 2863 1068.23 2849.04C1062.86 2835.07 1060.17 2820.13 1060.17 2804.21C1060.17 2788 1062.9 2773.06 1068.37 2759.39C1073.94 2745.72 1082.14 2733.66 1092.98 2723.21C1103.43 2712.95 1115.69 2705.14 1129.75 2699.77C1143.81 2694.4 1158.85 2691.71 1174.87 2691.71C1191.76 2691.71 1206.85 2694.79 1220.13 2700.94C1233.51 2707.09 1245.42 2716.52 1255.87 2729.21L1230.38 2748.4C1223.16 2740 1215 2733.75 1205.92 2729.65C1196.84 2725.55 1186.68 2723.5 1175.45 2723.5C1152.21 2723.5 1133.22 2730.97 1118.47 2745.91C1103.82 2760.76 1096.5 2780.09 1096.5 2803.92C1096.5 2828.14 1103.82 2847.82 1118.47 2862.95C1133.22 2877.99 1152.31 2885.51 1175.75 2885.51C1195.67 2885.51 1211.34 2880.87 1222.77 2871.6C1234.19 2862.32 1239.91 2849.67 1239.91 2833.66V2830.58H1188.34V2801.14ZM1345.52 2787.95H1351.82C1370.28 2787.95 1382.53 2785.8 1388.59 2781.51C1394.64 2777.21 1397.67 2769.59 1397.67 2758.66C1397.67 2746.84 1394.4 2738.54 1387.86 2733.75C1381.41 2728.87 1369.4 2726.43 1351.82 2726.43H1345.52V2787.95ZM1343.32 2815.05V2911H1310.66V2696.55H1359.29C1373.55 2696.55 1384.58 2697.47 1392.4 2699.33C1400.31 2701.19 1407.04 2704.26 1412.61 2708.56C1419.25 2713.73 1424.38 2720.42 1427.99 2728.63C1431.61 2736.83 1433.41 2745.81 1433.41 2755.58C1433.41 2772.77 1429.26 2786.24 1420.96 2796.01C1412.66 2805.68 1400.4 2811.49 1384.19 2813.44L1458.02 2911H1418.62L1347.28 2815.05H1343.32ZM1524.09 2826.77H1583.85L1561.88 2777.85C1560.61 2774.72 1559.29 2771.16 1557.92 2767.15C1556.56 2763.05 1555.19 2758.51 1553.82 2753.53C1552.65 2758.22 1551.38 2762.61 1550.01 2766.71C1548.74 2770.72 1547.43 2774.43 1546.06 2777.85L1524.09 2826.77ZM1620.47 2911L1596.16 2855.78H1511.2L1486.29 2911H1449.67L1553.53 2688.05L1657.24 2911H1620.47Z" fill="white"/>
<g clip-path="url(#clip1_419_1106)">
<g filter="url(#filter0_i_419_1106)">
<path d="M1834.43 1065.3C1743.03 895.841 1572.72 762.999 1359.31 716.919C989.912 637.077 630.528 847.746 556.953 1187.38C549.637 1221.15 545.342 1255.5 544.119 1290.03C496.026 1328.72 462.907 1382.9 450.436 1443.29C421.57 1576.36 492.632 1704.95 609.202 1730.12C641.746 1737.08 675.541 1735.52 707.302 1725.59L708.483 1726.92C676.951 1846.76 623.369 2083.29 685.633 2103.09C793.102 2137.31 807.497 2046.06 807.497 2046.06C807.497 2046.06 796.072 2141.11 872.237 2137.31C948.402 2133.51 948.402 2061.27 948.402 2061.27C948.402 2061.27 963.635 2141.11 1039.8 2141.11C1117.15 2141.11 1108.35 2057.47 1108.35 2057.47C1108.35 2057.47 1155.53 2153.13 1213.68 2131.11C1255.92 2115.11 1245.29 2043.06 1217.76 1963.07C1227.01 1963.48 1236.27 1963.71 1245.44 1963.79C1287.99 2003.94 1340.63 2031.85 1397.77 2044.54C1622.88 2093.17 1859.1 1884.48 1925.41 1578.45C1968.71 1379.27 1929.25 1188.03 1834.43 1065.3Z" fill="#EAE5E2"/>
</g>
<path d="M764.419 1559.25C799.669 1480.24 774.294 1392.2 707.742 1362.61C641.19 1333.01 558.663 1373.07 523.412 1452.07C488.162 1531.08 513.537 1619.12 580.089 1648.72C646.641 1678.31 729.169 1638.26 764.419 1559.25Z" fill="#333333"/>
<path d="M819.799 1833.57C857.881 1851.55 880.731 1803.15 880.731 1803.15C880.731 1803.15 917.785 1860.68 953.087 1833.57C1002.59 1795.55 911.197 1643.47 911.197 1643.47C911.197 1643.47 747.442 1799.35 819.799 1833.57Z" fill="#333333"/>
<path d="M1270.56 1628.28C1323.02 1575.91 1310.95 1478.96 1243.61 1411.73C1176.27 1344.49 1079.15 1332.45 1026.7 1384.81C974.245 1437.18 986.313 1534.14 1053.65 1601.37C1120.99 1668.6 1218.11 1680.65 1270.56 1628.28Z" fill="#333333"/>
</g>
</g>
<rect x="75" y="75" width="2230" height="3103" stroke="#F7F4F2" stroke-width="150" stroke-linejoin="bevel"/>
<defs>
<filter id="filter0_i_419_1106" x="444.008" y="699.716" width="1499.21" height="1441.4" filterUnits="userSpaceOnUse" color-interpolation-filters="sRGB">
<feFlood flood-opacity="0" result="BackgroundImageFix"/>
<feBlend mode="normal" in="SourceGraphic" in2="BackgroundImageFix" result="shape"/>
<feColorMatrix in="SourceAlpha" type="matrix" values="0 0 0 0 0 0 0 0 0 0 0 0 0 0 0 0 0 0 127 0" result="hardAlpha"/>
<feOffset dx="31" dy="-43"/>
<feGaussianBlur stdDeviation="0.15"/>
<feComposite in2="hardAlpha" operator="arithmetic" k2="-1" k3="1"/>
<feColorMatrix type="matrix" values="0 0 0 0 0 0 0 0 0 0 0 0 0 0 0 0 0 0 0.25 0"/>
<feBlend mode="normal" in2="shape" result="effect1_innerShadow_419_1106"/>
</filter>
<clipPath id="clip0_419_1106">
<rect x="150" y="150" width="2080" height="2953" fill="white"/>
</clipPath>
<clipPath id="clip1_419_1106">
<rect width="1499" height="1441" fill="white" transform="translate(444 700)"/>
</clipPath>
</defs>
</svg>
