<svg width="33" height="32" viewBox="0 0 33 32" fill="none" xmlns="http://www.w3.org/2000/svg">
<path d="M21.833 5.33301V21.333L16.4997 18.6663L11.1663 21.333V5.33301H21.833ZM8.49967 26.6663H24.4997C25.2069 26.6663 25.8852 26.3854 26.3853 25.8853C26.8854 25.3852 27.1663 24.7069 27.1663 23.9997V7.99967C27.1663 7.29243 26.8854 6.61415 26.3853 6.11406C25.8852 5.61396 25.2069 5.33301 24.4997 5.33301H8.49967C7.79243 5.33301 7.11415 5.61396 6.61406 6.11406C6.11396 6.61415 5.83301 7.29243 5.83301 7.99967V23.9997C5.83301 24.7069 6.11396 25.3852 6.61406 25.8853C7.11415 26.3854 7.79243 26.6663 8.49967 26.6663Z" fill="#FBFEFE"/>
</svg>
