<svg width="32" height="32" viewBox="0 0 32 32" fill="none" xmlns="http://www.w3.org/2000/svg">
<path d="M12 26.6667L4.73733 23.0347C4.51589 22.9241 4.32963 22.7539 4.1994 22.5434C4.06918 22.3329 4.00013 22.0903 4 21.8427V7.49071C4.00012 7.26352 4.05829 7.04013 4.16899 6.84174C4.27969 6.64334 4.43925 6.47653 4.63253 6.35711C4.8258 6.2377 5.04638 6.16966 5.27334 6.15944C5.5003 6.14921 5.72611 6.19715 5.92933 6.29871L12 9.33337L20 5.33337L27.2627 8.96537C27.4841 9.07603 27.6704 9.24615 27.8006 9.45667C27.9308 9.6672 27.9999 9.90982 28 10.1574V24.5094C27.9999 24.7366 27.9417 24.96 27.831 25.1583C27.7203 25.3567 27.5608 25.5236 27.3675 25.643C27.1742 25.7624 26.9536 25.8304 26.7267 25.8406C26.4997 25.8509 26.2739 25.8029 26.0707 25.7014L20 22.6667L12 26.6667Z" fill="#FDFCFC"/>
</svg>
